<mxfile host="app.diagrams.net" modified="2024-07-15T08:20:52.137Z" agent="Mozilla/5.0 (Macintosh; Intel Mac OS X 10_15_7) AppleWebKit/537.36 (KHTML, like Gecko) Chrome/126.0.0.0 Safari/537.36" etag="z-9X2eJB51g3jVBo7gDb" version="24.6.5" type="github">
  <diagram name="Seite-1" id="cYS-9EuOB4i6pcKZ9MJi">
    <mxGraphModel dx="3970" dy="2303" grid="1" gridSize="10" guides="1" tooltips="1" connect="1" arrows="1" fold="1" page="1" pageScale="1" pageWidth="827" pageHeight="1169" math="0" shadow="0">
      <root>
        <mxCell id="0" />
        <mxCell id="1" parent="0" />
        <mxCell id="hZRU2H-SfIQ9f5EC4YqQ-117" value="" style="rounded=1;whiteSpace=wrap;html=1;strokeColor=#7EA6E0;" parent="1" vertex="1">
          <mxGeometry x="230" y="645" width="340" height="95" as="geometry" />
        </mxCell>
        <mxCell id="5YDPGhxfkZ1rQy1-W0EN-1" value="&lt;font style=&quot;font-size: 24px;&quot; color=&quot;#ffffff&quot;&gt;&lt;b&gt;Mockup Kalender Aufsichtsperson/ Support vor Ort Startseite&lt;/b&gt;&lt;/font&gt;" style="rounded=0;whiteSpace=wrap;html=1;fillColor=#7EA6E0;strokeColor=#7EA6E0;" parent="1" vertex="1">
          <mxGeometry x="-827" y="-70" width="827" height="70" as="geometry" />
        </mxCell>
        <mxCell id="zZJHMVHqWspqlWFaA559-3" value="" style="shape=table;childLayout=tableLayout;startSize=0;collapsible=0;recursiveResize=0;expand=0;dashed=1;" parent="1" vertex="1">
          <mxGeometry x="-801" y="230" width="775" height="551" as="geometry" />
        </mxCell>
        <mxCell id="zZJHMVHqWspqlWFaA559-4" value="Zeitslot 1                " style="shape=tableRow;horizontal=0;swimlaneHead=0;swimlaneBody=0;top=0;left=0;bottom=0;right=0;dropTarget=0;fontStyle=0;points=[[0,0.5],[1,0.5]];portConstraint=eastwest;startSize=40;collapsible=0;recursiveResize=0;expand=0;fillColor=default;dashed=1;" parent="zZJHMVHqWspqlWFaA559-3" vertex="1">
          <mxGeometry width="775" height="170" as="geometry" />
        </mxCell>
        <mxCell id="zZJHMVHqWspqlWFaA559-5" value="Montag&#xa;Datum" style="swimlane;swimlaneHead=0;swimlaneBody=0;fontStyle=0;connectable=0;startSize=60;collapsible=0;recursiveResize=0;expand=0;dashed=1;" parent="zZJHMVHqWspqlWFaA559-4" vertex="1">
          <mxGeometry x="40" width="105" height="170" as="geometry">
            <mxRectangle width="105" height="170" as="alternateBounds" />
          </mxGeometry>
        </mxCell>
        <mxCell id="zZJHMVHqWspqlWFaA559-6" value="Dienstag&#xa;Datum" style="swimlane;swimlaneHead=0;swimlaneBody=0;fontStyle=0;connectable=0;startSize=60;collapsible=0;recursiveResize=0;expand=0;dashed=1;" parent="zZJHMVHqWspqlWFaA559-4" vertex="1">
          <mxGeometry x="145" width="105" height="170" as="geometry">
            <mxRectangle width="105" height="170" as="alternateBounds" />
          </mxGeometry>
        </mxCell>
        <mxCell id="zZJHMVHqWspqlWFaA559-7" value="Mittwoch&#xa;Datum" style="swimlane;swimlaneHead=0;swimlaneBody=0;fontStyle=0;connectable=0;startSize=60;collapsible=0;recursiveResize=0;expand=0;dashed=1;" parent="zZJHMVHqWspqlWFaA559-4" vertex="1">
          <mxGeometry x="250" width="105" height="170" as="geometry">
            <mxRectangle width="105" height="170" as="alternateBounds" />
          </mxGeometry>
        </mxCell>
        <mxCell id="zZJHMVHqWspqlWFaA559-8" value="Donnerstag&#xa;Datum" style="swimlane;swimlaneHead=0;swimlaneBody=0;fontStyle=0;connectable=0;startSize=60;collapsible=0;recursiveResize=0;expand=0;dashed=1;" parent="zZJHMVHqWspqlWFaA559-4" vertex="1">
          <mxGeometry x="355" width="105" height="170" as="geometry">
            <mxRectangle width="105" height="170" as="alternateBounds" />
          </mxGeometry>
        </mxCell>
        <mxCell id="zZJHMVHqWspqlWFaA559-9" value="Freitag&#xa;Datum" style="swimlane;swimlaneHead=0;swimlaneBody=0;fontStyle=0;connectable=0;startSize=60;collapsible=0;recursiveResize=0;expand=0;dashed=1;" parent="zZJHMVHqWspqlWFaA559-4" vertex="1">
          <mxGeometry x="460" width="105" height="170" as="geometry">
            <mxRectangle width="105" height="170" as="alternateBounds" />
          </mxGeometry>
        </mxCell>
        <mxCell id="zZJHMVHqWspqlWFaA559-10" value="Samstag&#xa;Datum" style="swimlane;swimlaneHead=0;swimlaneBody=0;fontStyle=0;connectable=0;startSize=60;collapsible=0;recursiveResize=0;expand=0;dashed=1;" parent="zZJHMVHqWspqlWFaA559-4" vertex="1">
          <mxGeometry x="565" width="105" height="170" as="geometry">
            <mxRectangle width="105" height="170" as="alternateBounds" />
          </mxGeometry>
        </mxCell>
        <mxCell id="zZJHMVHqWspqlWFaA559-11" value="Sonntag&#xa;Datum" style="swimlane;swimlaneHead=0;swimlaneBody=0;fontStyle=0;strokeColor=inherit;connectable=0;fillColor=none;startSize=60;collapsible=0;recursiveResize=0;expand=0;dashed=1;" parent="zZJHMVHqWspqlWFaA559-4" vertex="1">
          <mxGeometry x="670" width="105" height="170" as="geometry">
            <mxRectangle width="105" height="170" as="alternateBounds" />
          </mxGeometry>
        </mxCell>
        <mxCell id="zZJHMVHqWspqlWFaA559-13" value="Zeitslot 2" style="shape=tableRow;horizontal=0;swimlaneHead=0;swimlaneBody=0;top=0;left=0;bottom=0;right=0;dropTarget=0;fontStyle=0;points=[[0,0.5],[1,0.5]];portConstraint=eastwest;startSize=40;collapsible=0;recursiveResize=0;expand=0;dashed=1;" parent="zZJHMVHqWspqlWFaA559-3" vertex="1">
          <mxGeometry y="170" width="775" height="126" as="geometry" />
        </mxCell>
        <mxCell id="zZJHMVHqWspqlWFaA559-14" value="" style="swimlane;swimlaneHead=0;swimlaneBody=0;fontStyle=0;connectable=0;startSize=0;collapsible=0;recursiveResize=0;expand=0;dashed=1;" parent="zZJHMVHqWspqlWFaA559-13" vertex="1">
          <mxGeometry x="40" width="105" height="126" as="geometry">
            <mxRectangle width="105" height="126" as="alternateBounds" />
          </mxGeometry>
        </mxCell>
        <mxCell id="zZJHMVHqWspqlWFaA559-15" value="" style="swimlane;swimlaneHead=0;swimlaneBody=0;fontStyle=0;connectable=0;startSize=0;collapsible=0;recursiveResize=0;expand=0;dashed=1;" parent="zZJHMVHqWspqlWFaA559-13" vertex="1">
          <mxGeometry x="145" width="105" height="126" as="geometry">
            <mxRectangle width="105" height="126" as="alternateBounds" />
          </mxGeometry>
        </mxCell>
        <mxCell id="hZRU2H-SfIQ9f5EC4YqQ-67" value="&lt;font style=&quot;background-color: rgb(204, 204, 204);&quot; color=&quot;#ffffff&quot;&gt;geblockter Termin&lt;/font&gt;" style="rounded=0;whiteSpace=wrap;html=1;strokeColor=#969696;fillColor=#CCCCCC;" parent="zZJHMVHqWspqlWFaA559-15" vertex="1">
          <mxGeometry width="106" height="127" as="geometry" />
        </mxCell>
        <mxCell id="zZJHMVHqWspqlWFaA559-16" value="" style="swimlane;swimlaneHead=0;swimlaneBody=0;fontStyle=0;connectable=0;startSize=0;collapsible=0;recursiveResize=0;expand=0;dashed=1;" parent="zZJHMVHqWspqlWFaA559-13" vertex="1">
          <mxGeometry x="250" width="105" height="126" as="geometry">
            <mxRectangle width="105" height="126" as="alternateBounds" />
          </mxGeometry>
        </mxCell>
        <mxCell id="zZJHMVHqWspqlWFaA559-17" value="" style="swimlane;swimlaneHead=0;swimlaneBody=0;fontStyle=0;connectable=0;startSize=0;collapsible=0;recursiveResize=0;expand=0;dashed=1;" parent="zZJHMVHqWspqlWFaA559-13" vertex="1">
          <mxGeometry x="355" width="105" height="126" as="geometry">
            <mxRectangle width="105" height="126" as="alternateBounds" />
          </mxGeometry>
        </mxCell>
        <mxCell id="zZJHMVHqWspqlWFaA559-18" value="" style="swimlane;swimlaneHead=0;swimlaneBody=0;fontStyle=0;connectable=0;startSize=0;collapsible=0;recursiveResize=0;expand=0;dashed=1;" parent="zZJHMVHqWspqlWFaA559-13" vertex="1">
          <mxGeometry x="460" width="105" height="126" as="geometry">
            <mxRectangle width="105" height="126" as="alternateBounds" />
          </mxGeometry>
        </mxCell>
        <mxCell id="zZJHMVHqWspqlWFaA559-19" value="" style="swimlane;swimlaneHead=0;swimlaneBody=0;fontStyle=0;connectable=0;startSize=0;collapsible=0;recursiveResize=0;expand=0;dashed=1;" parent="zZJHMVHqWspqlWFaA559-13" vertex="1">
          <mxGeometry x="565" width="105" height="126" as="geometry">
            <mxRectangle width="105" height="126" as="alternateBounds" />
          </mxGeometry>
        </mxCell>
        <mxCell id="zZJHMVHqWspqlWFaA559-20" value="" style="swimlane;swimlaneHead=0;swimlaneBody=0;fontStyle=0;connectable=0;strokeColor=inherit;fillColor=none;startSize=0;collapsible=0;recursiveResize=0;expand=0;dashed=1;" parent="zZJHMVHqWspqlWFaA559-13" vertex="1">
          <mxGeometry x="670" width="105" height="126" as="geometry">
            <mxRectangle width="105" height="126" as="alternateBounds" />
          </mxGeometry>
        </mxCell>
        <mxCell id="zZJHMVHqWspqlWFaA559-22" value="Zeitslot 3" style="shape=tableRow;horizontal=0;swimlaneHead=0;swimlaneBody=0;top=0;left=0;bottom=0;right=0;dropTarget=0;fontStyle=0;points=[[0,0.5],[1,0.5]];portConstraint=eastwest;startSize=40;collapsible=0;recursiveResize=0;expand=0;dashed=1;" parent="zZJHMVHqWspqlWFaA559-3" vertex="1">
          <mxGeometry y="296" width="775" height="129" as="geometry" />
        </mxCell>
        <mxCell id="zZJHMVHqWspqlWFaA559-23" value="" style="swimlane;swimlaneHead=0;swimlaneBody=0;fontStyle=0;connectable=0;startSize=0;collapsible=0;recursiveResize=0;expand=0;dashed=1;" parent="zZJHMVHqWspqlWFaA559-22" vertex="1">
          <mxGeometry x="40" width="105" height="129" as="geometry">
            <mxRectangle width="105" height="129" as="alternateBounds" />
          </mxGeometry>
        </mxCell>
        <mxCell id="zZJHMVHqWspqlWFaA559-24" value="" style="swimlane;swimlaneHead=0;swimlaneBody=0;fontStyle=0;connectable=0;startSize=0;collapsible=0;recursiveResize=0;expand=0;dashed=1;" parent="zZJHMVHqWspqlWFaA559-22" vertex="1">
          <mxGeometry x="145" width="105" height="129" as="geometry">
            <mxRectangle width="105" height="129" as="alternateBounds" />
          </mxGeometry>
        </mxCell>
        <mxCell id="zZJHMVHqWspqlWFaA559-25" value="" style="swimlane;swimlaneHead=0;swimlaneBody=0;fontStyle=0;connectable=0;startSize=0;collapsible=0;recursiveResize=0;expand=0;dashed=1;" parent="zZJHMVHqWspqlWFaA559-22" vertex="1">
          <mxGeometry x="250" width="105" height="129" as="geometry">
            <mxRectangle width="105" height="129" as="alternateBounds" />
          </mxGeometry>
        </mxCell>
        <mxCell id="zZJHMVHqWspqlWFaA559-26" value="" style="swimlane;swimlaneHead=0;swimlaneBody=0;fontStyle=0;connectable=0;startSize=0;collapsible=0;recursiveResize=0;expand=0;dashed=1;" parent="zZJHMVHqWspqlWFaA559-22" vertex="1">
          <mxGeometry x="355" width="105" height="129" as="geometry">
            <mxRectangle width="105" height="129" as="alternateBounds" />
          </mxGeometry>
        </mxCell>
        <mxCell id="hZRU2H-SfIQ9f5EC4YqQ-66" value="&lt;div align=&quot;left&quot;&gt;&lt;font color=&quot;#4f688c&quot;&gt;Eintrag gebuchter Termin (der für Aufsicht relevant ist) --&amp;gt; Relevante Info anzeigen&lt;br&gt;&lt;/font&gt;&lt;/div&gt;" style="rounded=0;whiteSpace=wrap;html=1;fillColor=#dae8fc;strokeColor=#6c8ebf;" parent="zZJHMVHqWspqlWFaA559-26" vertex="1">
          <mxGeometry width="105" height="130" as="geometry" />
        </mxCell>
        <mxCell id="hZRU2H-SfIQ9f5EC4YqQ-68" value="" style="shape=flexArrow;endArrow=classic;html=1;rounded=0;width=6;endSize=5.45;strokeWidth=2;endWidth=15;" parent="zZJHMVHqWspqlWFaA559-26" edge="1">
          <mxGeometry width="50" height="50" relative="1" as="geometry">
            <mxPoint x="126" y="114" as="sourcePoint" />
            <mxPoint x="96" y="104" as="targetPoint" />
          </mxGeometry>
        </mxCell>
        <mxCell id="zZJHMVHqWspqlWFaA559-27" value="" style="swimlane;swimlaneHead=0;swimlaneBody=0;fontStyle=0;connectable=0;startSize=0;collapsible=0;recursiveResize=0;expand=0;dashed=1;" parent="zZJHMVHqWspqlWFaA559-22" vertex="1">
          <mxGeometry x="460" width="105" height="129" as="geometry">
            <mxRectangle width="105" height="129" as="alternateBounds" />
          </mxGeometry>
        </mxCell>
        <mxCell id="hZRU2H-SfIQ9f5EC4YqQ-71" style="edgeStyle=orthogonalEdgeStyle;rounded=0;orthogonalLoop=1;jettySize=auto;html=1;strokeColor=#ABABAB;" parent="zZJHMVHqWspqlWFaA559-27" edge="1">
          <mxGeometry relative="1" as="geometry">
            <mxPoint x="501" y="105" as="targetPoint" />
            <mxPoint x="11" y="104" as="sourcePoint" />
            <Array as="points">
              <mxPoint x="11" y="105" />
              <mxPoint x="132" y="105" />
            </Array>
          </mxGeometry>
        </mxCell>
        <mxCell id="zZJHMVHqWspqlWFaA559-28" value="" style="swimlane;swimlaneHead=0;swimlaneBody=0;fontStyle=0;connectable=0;startSize=0;collapsible=0;recursiveResize=0;expand=0;dashed=1;" parent="zZJHMVHqWspqlWFaA559-22" vertex="1">
          <mxGeometry x="565" width="105" height="129" as="geometry">
            <mxRectangle width="105" height="129" as="alternateBounds" />
          </mxGeometry>
        </mxCell>
        <mxCell id="zZJHMVHqWspqlWFaA559-29" value="" style="swimlane;swimlaneHead=0;swimlaneBody=0;fontStyle=0;connectable=0;strokeColor=inherit;fillColor=none;startSize=0;collapsible=0;recursiveResize=0;expand=0;dashed=1;" parent="zZJHMVHqWspqlWFaA559-22" vertex="1">
          <mxGeometry x="670" width="105" height="129" as="geometry">
            <mxRectangle width="105" height="129" as="alternateBounds" />
          </mxGeometry>
        </mxCell>
        <mxCell id="zZJHMVHqWspqlWFaA559-31" value="Zeitslot 4" style="shape=tableRow;horizontal=0;swimlaneHead=0;swimlaneBody=0;top=0;left=0;bottom=0;right=0;dropTarget=0;fontStyle=0;points=[[0,0.5],[1,0.5]];portConstraint=eastwest;startSize=40;collapsible=0;recursiveResize=0;expand=0;dashed=1;" parent="zZJHMVHqWspqlWFaA559-3" vertex="1">
          <mxGeometry y="425" width="775" height="126" as="geometry" />
        </mxCell>
        <mxCell id="zZJHMVHqWspqlWFaA559-32" value="" style="swimlane;swimlaneHead=0;swimlaneBody=0;fontStyle=0;connectable=0;strokeColor=inherit;fillColor=none;startSize=0;collapsible=0;recursiveResize=0;expand=0;dashed=1;" parent="zZJHMVHqWspqlWFaA559-31" vertex="1">
          <mxGeometry x="40" width="105" height="126" as="geometry">
            <mxRectangle width="105" height="126" as="alternateBounds" />
          </mxGeometry>
        </mxCell>
        <mxCell id="zZJHMVHqWspqlWFaA559-33" value="" style="swimlane;swimlaneHead=0;swimlaneBody=0;fontStyle=0;connectable=0;strokeColor=inherit;fillColor=none;startSize=0;collapsible=0;recursiveResize=0;expand=0;dashed=1;" parent="zZJHMVHqWspqlWFaA559-31" vertex="1">
          <mxGeometry x="145" width="105" height="126" as="geometry">
            <mxRectangle width="105" height="126" as="alternateBounds" />
          </mxGeometry>
        </mxCell>
        <mxCell id="zZJHMVHqWspqlWFaA559-34" value="" style="swimlane;swimlaneHead=0;swimlaneBody=0;fontStyle=0;connectable=0;strokeColor=inherit;fillColor=none;startSize=0;collapsible=0;recursiveResize=0;expand=0;dashed=1;" parent="zZJHMVHqWspqlWFaA559-31" vertex="1">
          <mxGeometry x="250" width="105" height="126" as="geometry">
            <mxRectangle width="105" height="126" as="alternateBounds" />
          </mxGeometry>
        </mxCell>
        <mxCell id="zZJHMVHqWspqlWFaA559-35" value="" style="swimlane;swimlaneHead=0;swimlaneBody=0;fontStyle=0;connectable=0;strokeColor=inherit;fillColor=none;startSize=0;collapsible=0;recursiveResize=0;expand=0;dashed=1;" parent="zZJHMVHqWspqlWFaA559-31" vertex="1">
          <mxGeometry x="355" width="105" height="126" as="geometry">
            <mxRectangle width="105" height="126" as="alternateBounds" />
          </mxGeometry>
        </mxCell>
        <mxCell id="zZJHMVHqWspqlWFaA559-36" value="" style="swimlane;swimlaneHead=0;swimlaneBody=0;fontStyle=0;connectable=0;strokeColor=inherit;fillColor=none;startSize=0;collapsible=0;recursiveResize=0;expand=0;dashed=1;" parent="zZJHMVHqWspqlWFaA559-31" vertex="1">
          <mxGeometry x="460" width="105" height="126" as="geometry">
            <mxRectangle width="105" height="126" as="alternateBounds" />
          </mxGeometry>
        </mxCell>
        <mxCell id="zZJHMVHqWspqlWFaA559-37" value="" style="swimlane;swimlaneHead=0;swimlaneBody=0;fontStyle=0;connectable=0;strokeColor=inherit;fillColor=none;startSize=0;collapsible=0;recursiveResize=0;expand=0;dashed=1;" parent="zZJHMVHqWspqlWFaA559-31" vertex="1">
          <mxGeometry x="565" width="105" height="126" as="geometry">
            <mxRectangle width="105" height="126" as="alternateBounds" />
          </mxGeometry>
        </mxCell>
        <mxCell id="zZJHMVHqWspqlWFaA559-38" value="" style="swimlane;swimlaneHead=0;swimlaneBody=0;fontStyle=0;connectable=0;strokeColor=inherit;fillColor=none;startSize=0;collapsible=0;recursiveResize=0;expand=0;dashed=1;" parent="zZJHMVHqWspqlWFaA559-31" vertex="1">
          <mxGeometry x="670" width="105" height="126" as="geometry">
            <mxRectangle width="105" height="126" as="alternateBounds" />
          </mxGeometry>
        </mxCell>
        <mxCell id="hZRU2H-SfIQ9f5EC4YqQ-3" value="" style="shape=flexArrow;endArrow=classic;html=1;rounded=0;endWidth=8;endSize=4;fillColor=#dae8fc;strokeColor=#6c8ebf;" parent="1" edge="1">
          <mxGeometry width="50" height="50" relative="1" as="geometry">
            <mxPoint x="-770" y="204.5" as="sourcePoint" />
            <mxPoint x="-810" y="204.5" as="targetPoint" />
          </mxGeometry>
        </mxCell>
        <mxCell id="hZRU2H-SfIQ9f5EC4YqQ-5" value="" style="shape=flexArrow;endArrow=classic;html=1;rounded=0;endWidth=8;endSize=4;fillColor=#dae8fc;strokeColor=#6c8ebf;" parent="1" edge="1">
          <mxGeometry width="50" height="50" relative="1" as="geometry">
            <mxPoint x="-50" y="204.5" as="sourcePoint" />
            <mxPoint x="-10" y="204.5" as="targetPoint" />
          </mxGeometry>
        </mxCell>
        <mxCell id="hZRU2H-SfIQ9f5EC4YqQ-6" value="&lt;div&gt;&lt;font style=&quot;font-size: 25px;&quot;&gt;Monat&lt;br&gt;&lt;/font&gt;&lt;/div&gt;&lt;div&gt;&lt;font style=&quot;font-size: 25px;&quot;&gt;Kalenderwoche xx&lt;/font&gt;&lt;/div&gt;" style="text;html=1;align=center;verticalAlign=middle;whiteSpace=wrap;rounded=0;fontColor=#7EA6E0;" parent="1" vertex="1">
          <mxGeometry x="-558.5" y="150" width="290" height="60" as="geometry" />
        </mxCell>
        <mxCell id="hZRU2H-SfIQ9f5EC4YqQ-7" value="KW xx" style="text;html=1;align=center;verticalAlign=middle;whiteSpace=wrap;rounded=0;" parent="1" vertex="1">
          <mxGeometry x="-770" y="190" width="60" height="30" as="geometry" />
        </mxCell>
        <mxCell id="hZRU2H-SfIQ9f5EC4YqQ-9" value="KW xx" style="text;html=1;align=center;verticalAlign=middle;whiteSpace=wrap;rounded=0;" parent="1" vertex="1">
          <mxGeometry x="-110" y="190" width="60" height="30" as="geometry" />
        </mxCell>
        <mxCell id="hZRU2H-SfIQ9f5EC4YqQ-38" style="edgeStyle=orthogonalEdgeStyle;rounded=0;orthogonalLoop=1;jettySize=auto;html=1;strokeColor=#ABABAB;exitX=1.002;exitY=0.567;exitDx=0;exitDy=0;exitPerimeter=0;" parent="1" source="hZRU2H-SfIQ9f5EC4YqQ-110" edge="1">
          <mxGeometry relative="1" as="geometry">
            <mxPoint x="90" y="120" as="targetPoint" />
          </mxGeometry>
        </mxCell>
        <mxCell id="hZRU2H-SfIQ9f5EC4YqQ-37" style="edgeStyle=orthogonalEdgeStyle;rounded=0;orthogonalLoop=1;jettySize=auto;html=1;strokeColor=#ABABAB;" parent="1" source="hZRU2H-SfIQ9f5EC4YqQ-28" edge="1">
          <mxGeometry relative="1" as="geometry">
            <mxPoint x="-965" y="150" as="targetPoint" />
          </mxGeometry>
        </mxCell>
        <mxCell id="hZRU2H-SfIQ9f5EC4YqQ-28" value="Monat/KW" style="html=1;shadow=0;dashed=0;shape=mxgraph.bootstrap.rrect;rSize=5;fillColor=#ffffff;strokeColor=#999999;align=left;spacing=15;fontSize=14;fontColor=#6C767D;" parent="1" vertex="1">
          <mxGeometry x="-810" y="80" width="160" height="30" as="geometry" />
        </mxCell>
        <mxCell id="hZRU2H-SfIQ9f5EC4YqQ-29" value="" style="shape=triangle;direction=south;fillColor=#343A40;strokeColor=none;perimeter=none;sketch=0;" parent="hZRU2H-SfIQ9f5EC4YqQ-28" vertex="1">
          <mxGeometry x="1" y="0.5" width="7" height="3" relative="1" as="geometry">
            <mxPoint x="-17" y="1" as="offset" />
          </mxGeometry>
        </mxCell>
        <mxCell id="hZRU2H-SfIQ9f5EC4YqQ-30" value="" style="shape=triangle;direction=north;fillColor=#343A40;strokeColor=none;perimeter=none;sketch=0;" parent="hZRU2H-SfIQ9f5EC4YqQ-28" vertex="1">
          <mxGeometry x="1" y="0.5" width="7" height="3" relative="1" as="geometry">
            <mxPoint x="-17" y="-4" as="offset" />
          </mxGeometry>
        </mxCell>
        <mxCell id="hZRU2H-SfIQ9f5EC4YqQ-53" value="" style="html=1;shadow=0;dashed=0;shape=mxgraph.bootstrap.rrect;rSize=5;strokeColor=#DFDFDF;html=1;whiteSpace=wrap;fillColor=#FFFFFF;fontColor=#000000;" parent="1" vertex="1">
          <mxGeometry x="50" y="130" width="200" height="150" as="geometry" />
        </mxCell>
        <mxCell id="hZRU2H-SfIQ9f5EC4YqQ-54" value="Institut" style="html=1;shadow=0;dashed=0;shape=mxgraph.bootstrap.topButton;rSize=5;strokeColor=inherit;fillColor=#ffffff;fontColor=#6C767D;perimeter=none;whiteSpace=wrap;resizeWidth=1;align=left;spacing=10;" parent="hZRU2H-SfIQ9f5EC4YqQ-53" vertex="1">
          <mxGeometry width="200" height="30" relative="1" as="geometry" />
        </mxCell>
        <mxCell id="hZRU2H-SfIQ9f5EC4YqQ-55" value="&lt;font color=&quot;#ababab&quot;&gt;Freitexsuch (Prüfungsname / Titel&lt;/font&gt;" style="strokeColor=inherit;fillColor=inherit;gradientColor=inherit;fontColor=inherit;html=1;shadow=0;dashed=0;perimeter=none;whiteSpace=wrap;resizeWidth=1;align=left;spacing=10;" parent="hZRU2H-SfIQ9f5EC4YqQ-53" vertex="1">
          <mxGeometry width="200" height="30" relative="1" as="geometry">
            <mxPoint y="30" as="offset" />
          </mxGeometry>
        </mxCell>
        <mxCell id="hZRU2H-SfIQ9f5EC4YqQ-56" value="Zeitslot" style="strokeColor=inherit;fillColor=inherit;gradientColor=inherit;fontColor=inherit;html=1;shadow=0;dashed=0;perimeter=none;whiteSpace=wrap;resizeWidth=1;align=left;spacing=10;" parent="hZRU2H-SfIQ9f5EC4YqQ-53" vertex="1">
          <mxGeometry width="200" height="30" relative="1" as="geometry">
            <mxPoint y="60" as="offset" />
          </mxGeometry>
        </mxCell>
        <mxCell id="hZRU2H-SfIQ9f5EC4YqQ-57" value="Raum" style="strokeColor=inherit;fillColor=inherit;gradientColor=inherit;fontColor=inherit;html=1;shadow=0;dashed=0;perimeter=none;whiteSpace=wrap;resizeWidth=1;align=left;spacing=10;" parent="hZRU2H-SfIQ9f5EC4YqQ-53" vertex="1">
          <mxGeometry width="200" height="30" relative="1" as="geometry">
            <mxPoint y="90" as="offset" />
          </mxGeometry>
        </mxCell>
        <mxCell id="hZRU2H-SfIQ9f5EC4YqQ-58" value="Einrichtung / Fakultät" style="strokeColor=inherit;fillColor=inherit;gradientColor=inherit;fontColor=inherit;html=1;shadow=0;dashed=0;shape=mxgraph.bootstrap.bottomButton;rSize=5;perimeter=none;whiteSpace=wrap;resizeWidth=1;resizeHeight=0;align=left;spacing=10;" parent="hZRU2H-SfIQ9f5EC4YqQ-53" vertex="1">
          <mxGeometry y="1" width="200" height="30" relative="1" as="geometry">
            <mxPoint y="-30" as="offset" />
          </mxGeometry>
        </mxCell>
        <mxCell id="hZRU2H-SfIQ9f5EC4YqQ-59" value="" style="line;strokeWidth=1;html=1;dashed=1;" parent="1" vertex="1">
          <mxGeometry x="-800" y="285" width="40" height="10" as="geometry" />
        </mxCell>
        <mxCell id="hZRU2H-SfIQ9f5EC4YqQ-61" value="&lt;font style=&quot;font-size: 24px;&quot;&gt;&lt;b&gt;&lt;font color=&quot;#ffffff&quot;&gt;Mockup Kalender Aufsichtsperson/ Support vor Ort persönliche Termine (Terminübersicht)&lt;/font&gt;&lt;font color=&quot;#ffffff&quot;&gt;&lt;br&gt;&lt;/font&gt;&lt;/b&gt;&lt;/font&gt;" style="rounded=0;whiteSpace=wrap;html=1;fillColor=#7EA6E0;strokeColor=#7EA6E0;" parent="1" vertex="1">
          <mxGeometry x="-827" y="830" width="827" height="80" as="geometry" />
        </mxCell>
        <mxCell id="hZRU2H-SfIQ9f5EC4YqQ-72" value="" style="rounded=1;whiteSpace=wrap;html=1;arcSize=2;strokeColor=#4F688C;" parent="1" vertex="1">
          <mxGeometry x="170" y="440" width="440" height="550" as="geometry" />
        </mxCell>
        <mxCell id="hZRU2H-SfIQ9f5EC4YqQ-73" value="nach dem Klicken auf den Termin, öffnet sich die Detailansicht mit allen Angaben zum Termin (Die Ansicht liegt über dem Kalender)" style="text;html=1;align=center;verticalAlign=middle;whiteSpace=wrap;rounded=0;fontColor=#ABABAB;" parent="1" vertex="1">
          <mxGeometry x="10" y="640" width="130" height="100" as="geometry" />
        </mxCell>
        <mxCell id="hZRU2H-SfIQ9f5EC4YqQ-219" style="edgeStyle=none;rounded=0;orthogonalLoop=1;jettySize=auto;html=1;strokeColor=#ABABAB;" parent="1" source="hZRU2H-SfIQ9f5EC4YqQ-84" target="hZRU2H-SfIQ9f5EC4YqQ-218" edge="1">
          <mxGeometry relative="1" as="geometry" />
        </mxCell>
        <mxCell id="e1TnNH38wNG9se1s8yBi-6" value="" style="edgeStyle=orthogonalEdgeStyle;rounded=0;orthogonalLoop=1;jettySize=auto;html=1;" edge="1" parent="1" source="hZRU2H-SfIQ9f5EC4YqQ-84" target="e1TnNH38wNG9se1s8yBi-5">
          <mxGeometry relative="1" as="geometry" />
        </mxCell>
        <mxCell id="hZRU2H-SfIQ9f5EC4YqQ-84" value="" style="html=1;verticalLabelPosition=bottom;align=center;labelBackgroundColor=#ffffff;verticalAlign=top;strokeWidth=2;strokeColor=#7EA6E0;shadow=0;dashed=0;shape=mxgraph.ios7.icons.edit;" parent="1" vertex="1">
          <mxGeometry x="183" y="650" width="29.4" height="29.4" as="geometry" />
        </mxCell>
        <mxCell id="hZRU2H-SfIQ9f5EC4YqQ-115" style="edgeStyle=none;rounded=0;orthogonalLoop=1;jettySize=auto;html=1;strokeColor=#ABABAB;" parent="1" edge="1">
          <mxGeometry relative="1" as="geometry">
            <mxPoint x="660" y="694" as="targetPoint" />
            <mxPoint x="340" y="694.3413333333335" as="sourcePoint" />
          </mxGeometry>
        </mxCell>
        <mxCell id="hZRU2H-SfIQ9f5EC4YqQ-96" value="&lt;font style=&quot;font-size: 15px;&quot; color=&quot;#ffffff&quot;&gt;&lt;span style=&quot;font-weight: normal;&quot;&gt;Termin&lt;/span&gt; &lt;span style=&quot;font-weight: normal;&quot;&gt;ablehnen&lt;/span&gt;&lt;/font&gt;" style="strokeWidth=1;shadow=0;dashed=0;align=center;html=1;shape=mxgraph.mockup.buttons.button;strokeColor=#A680B8;mainText=;buttonStyle=round;fontSize=17;fontStyle=1;fillColor=#CDA2BE;whiteSpace=wrap;" parent="1" vertex="1">
          <mxGeometry x="480" y="880" width="110" height="40" as="geometry" />
        </mxCell>
        <mxCell id="hZRU2H-SfIQ9f5EC4YqQ-110" value="Filterkategorie" style="html=1;shadow=0;dashed=0;shape=mxgraph.bootstrap.rrect;rSize=5;strokeColor=#ABABAB;strokeWidth=1;fillColor=#ffffff;fontColor=#777777;whiteSpace=wrap;align=left;verticalAlign=middle;fontStyle=0;fontSize=14;spacingRight=0;spacing=17;" parent="1" vertex="1">
          <mxGeometry x="-630" y="80" width="550" height="30" as="geometry" />
        </mxCell>
        <mxCell id="hZRU2H-SfIQ9f5EC4YqQ-111" value="" style="shape=triangle;direction=south;fillColor=#495057;strokeColor=none;perimeter=none;" parent="hZRU2H-SfIQ9f5EC4YqQ-110" vertex="1">
          <mxGeometry x="1" y="0.5" width="10" height="5" relative="1" as="geometry">
            <mxPoint x="-17" y="-2.5" as="offset" />
          </mxGeometry>
        </mxCell>
        <mxCell id="hZRU2H-SfIQ9f5EC4YqQ-118" value="&lt;div align=&quot;left&quot;&gt;&lt;font color=&quot;#4f688c&quot;&gt;eigene Notizen (nur von der eingeloggten Person lesbar)&lt;br&gt;&lt;/font&gt;&lt;/div&gt;&lt;div align=&quot;left&quot;&gt;&lt;font color=&quot;#4f688c&quot;&gt;&lt;br&gt;&lt;/font&gt;&lt;/div&gt;&lt;div align=&quot;left&quot;&gt;&lt;font color=&quot;#4f688c&quot;&gt;&lt;br&gt;&lt;/font&gt;&lt;/div&gt;&lt;div align=&quot;left&quot;&gt;&lt;font color=&quot;#4f688c&quot;&gt;&lt;br&gt;&lt;/font&gt;&lt;/div&gt;&lt;div align=&quot;left&quot;&gt;&lt;font color=&quot;#4f688c&quot;&gt;&lt;br&gt;&lt;/font&gt;&lt;/div&gt;" style="rounded=1;whiteSpace=wrap;html=1;strokeColor=#A9C4EB;align=left;" parent="1" vertex="1">
          <mxGeometry x="230" y="751" width="320" height="90" as="geometry" />
        </mxCell>
        <mxCell id="hZRU2H-SfIQ9f5EC4YqQ-116" value="&lt;font size=&quot;1&quot;&gt;&lt;u style=&quot;font-size: 14px;&quot;&gt;Bearbeiten&lt;/u&gt;&lt;/font&gt;" style="html=1;shadow=0;dashed=0;shape=mxgraph.bootstrap.rrect;rSize=5;strokeColor=none;strokeWidth=1;fillColor=none;fontColor=#0085FC;whiteSpace=wrap;align=center;verticalAlign=middle;spacingLeft=0;fontStyle=0;fontSize=16;spacing=5;" parent="1" vertex="1">
          <mxGeometry x="450" y="709.4" width="110" height="30.6" as="geometry" />
        </mxCell>
        <mxCell id="hZRU2H-SfIQ9f5EC4YqQ-122" value="&lt;font color=&quot;#ababab&quot;&gt;Nach dem Klicken auf &quot;Bearbeiten&quot; wird öffnet sich Textfeld, in das eigene Notizen eingetragen werden können&lt;/font&gt;" style="text;html=1;align=center;verticalAlign=middle;whiteSpace=wrap;rounded=0;" parent="1" vertex="1">
          <mxGeometry x="670" y="800" width="100" height="100" as="geometry" />
        </mxCell>
        <mxCell id="hZRU2H-SfIQ9f5EC4YqQ-125" style="edgeStyle=none;rounded=0;orthogonalLoop=1;jettySize=auto;html=1;strokeColor=#ABABAB;" parent="1" edge="1">
          <mxGeometry relative="1" as="geometry">
            <mxPoint x="286.00000000000045" y="930" as="targetPoint" />
            <mxPoint x="286.00000000000045" y="850" as="sourcePoint" />
          </mxGeometry>
        </mxCell>
        <mxCell id="e1TnNH38wNG9se1s8yBi-4" value="" style="edgeStyle=orthogonalEdgeStyle;rounded=0;orthogonalLoop=1;jettySize=auto;html=1;" edge="1" parent="1" source="hZRU2H-SfIQ9f5EC4YqQ-124">
          <mxGeometry relative="1" as="geometry">
            <mxPoint x="285" y="930" as="targetPoint" />
          </mxGeometry>
        </mxCell>
        <mxCell id="e1TnNH38wNG9se1s8yBi-8" value="" style="edgeStyle=orthogonalEdgeStyle;rounded=0;orthogonalLoop=1;jettySize=auto;html=1;" edge="1" parent="1" source="hZRU2H-SfIQ9f5EC4YqQ-124">
          <mxGeometry relative="1" as="geometry">
            <mxPoint x="285" y="1060" as="targetPoint" />
          </mxGeometry>
        </mxCell>
        <mxCell id="hZRU2H-SfIQ9f5EC4YqQ-124" value="&lt;div&gt;&lt;font style=&quot;font-size: 15px;&quot; color=&quot;#4f688c&quot;&gt;Checkliste&lt;/font&gt;&lt;/div&gt;" style="strokeWidth=1;shadow=0;dashed=0;align=center;html=1;shape=mxgraph.mockup.buttons.button;strokeColor=#6c8ebf;mainText=;buttonStyle=round;fontSize=17;fontStyle=1;fillColor=#dae8fc;whiteSpace=wrap;" parent="1" vertex="1">
          <mxGeometry x="230" y="890" width="110" height="30" as="geometry" />
        </mxCell>
        <mxCell id="hZRU2H-SfIQ9f5EC4YqQ-126" value="&lt;font color=&quot;#ababab&quot;&gt;Es öffnet sich der Bereich / das Modul mit den Checklisten - idealerweise mit den hervorgehobenen persönlichen Checklistenelementen&lt;br&gt;&lt;/font&gt;" style="text;html=1;align=center;verticalAlign=middle;whiteSpace=wrap;rounded=0;" parent="1" vertex="1">
          <mxGeometry x="235" y="1070" width="185" height="100" as="geometry" />
        </mxCell>
        <mxCell id="hZRU2H-SfIQ9f5EC4YqQ-128" value="Termine für die ich gebucht bin " style="text;html=1;align=center;verticalAlign=middle;whiteSpace=wrap;rounded=0;fontColor=#ABABAB;" parent="1" vertex="1">
          <mxGeometry x="-1270" y="160" width="210" height="100" as="geometry" />
        </mxCell>
        <mxCell id="hZRU2H-SfIQ9f5EC4YqQ-131" value="" style="html=1;shadow=0;dashed=0;shape=mxgraph.bootstrap.rrect;rSize=5;strokeColor=#DFDFDF;html=1;whiteSpace=wrap;fillColor=#FFFFFF;fontColor=#000000;" parent="1" vertex="1">
          <mxGeometry x="-1050" y="160" width="150" height="90" as="geometry" />
        </mxCell>
        <mxCell id="hZRU2H-SfIQ9f5EC4YqQ-132" value="&lt;font color=&quot;#ababab&quot;&gt;Tag&lt;/font&gt;" style="html=1;shadow=0;dashed=0;shape=mxgraph.bootstrap.topButton;rSize=5;strokeColor=inherit;fillColor=#ffffff;fontColor=#6C767D;perimeter=none;whiteSpace=wrap;resizeWidth=1;align=left;spacing=10;" parent="hZRU2H-SfIQ9f5EC4YqQ-131" vertex="1">
          <mxGeometry width="150" height="30" relative="1" as="geometry" />
        </mxCell>
        <mxCell id="hZRU2H-SfIQ9f5EC4YqQ-133" value="&lt;font color=&quot;#ababab&quot;&gt;persönliche Termine&lt;/font&gt;" style="strokeColor=inherit;fillColor=inherit;gradientColor=inherit;fontColor=inherit;html=1;shadow=0;dashed=0;perimeter=none;whiteSpace=wrap;resizeWidth=1;align=left;spacing=10;" parent="hZRU2H-SfIQ9f5EC4YqQ-131" vertex="1">
          <mxGeometry width="150" height="30" relative="1" as="geometry">
            <mxPoint y="30" as="offset" />
          </mxGeometry>
        </mxCell>
        <mxCell id="hZRU2H-SfIQ9f5EC4YqQ-134" value="..." style="strokeColor=inherit;fillColor=inherit;gradientColor=inherit;fontColor=inherit;html=1;shadow=0;dashed=0;perimeter=none;whiteSpace=wrap;resizeWidth=1;align=left;spacing=10;" parent="hZRU2H-SfIQ9f5EC4YqQ-131" vertex="1">
          <mxGeometry width="150" height="30" relative="1" as="geometry">
            <mxPoint y="60" as="offset" />
          </mxGeometry>
        </mxCell>
        <mxCell id="hZRU2H-SfIQ9f5EC4YqQ-135" value="" style="strokeColor=inherit;fillColor=inherit;gradientColor=inherit;fontColor=inherit;html=1;shadow=0;dashed=0;perimeter=none;whiteSpace=wrap;resizeWidth=1;align=left;spacing=10;" parent="hZRU2H-SfIQ9f5EC4YqQ-131" vertex="1">
          <mxGeometry width="150" relative="1" as="geometry">
            <mxPoint y="90" as="offset" />
          </mxGeometry>
        </mxCell>
        <mxCell id="hZRU2H-SfIQ9f5EC4YqQ-136" value="&lt;font color=&quot;#ababab&quot;&gt;Aktuelle Termine&lt;/font&gt;" style="strokeColor=inherit;fillColor=inherit;gradientColor=inherit;fontColor=inherit;html=1;shadow=0;dashed=0;shape=mxgraph.bootstrap.bottomButton;rSize=5;perimeter=none;whiteSpace=wrap;resizeWidth=1;resizeHeight=0;align=left;spacing=10;" parent="hZRU2H-SfIQ9f5EC4YqQ-131" vertex="1">
          <mxGeometry y="1" width="150" height="30" relative="1" as="geometry">
            <mxPoint y="-30" as="offset" />
          </mxGeometry>
        </mxCell>
        <mxCell id="hZRU2H-SfIQ9f5EC4YqQ-138" value="" style="group" parent="1" vertex="1" connectable="0">
          <mxGeometry x="170" y="431" width="440" height="320" as="geometry" />
        </mxCell>
        <mxCell id="hZRU2H-SfIQ9f5EC4YqQ-75" value="" style="endArrow=none;html=1;rounded=0;entryX=0.002;entryY=0.158;entryDx=0;entryDy=0;entryPerimeter=0;" parent="hZRU2H-SfIQ9f5EC4YqQ-138" source="hZRU2H-SfIQ9f5EC4YqQ-78" edge="1">
          <mxGeometry width="50" height="50" relative="1" as="geometry">
            <mxPoint x="440" y="70" as="sourcePoint" />
            <mxPoint x="0.8800000000001091" y="70.00000000000011" as="targetPoint" />
          </mxGeometry>
        </mxCell>
        <mxCell id="hZRU2H-SfIQ9f5EC4YqQ-79" value="" style="endArrow=none;html=1;rounded=0;entryX=0.002;entryY=0.158;entryDx=0;entryDy=0;entryPerimeter=0;" parent="hZRU2H-SfIQ9f5EC4YqQ-138" target="hZRU2H-SfIQ9f5EC4YqQ-78" edge="1">
          <mxGeometry width="50" height="50" relative="1" as="geometry">
            <mxPoint x="440" y="70" as="sourcePoint" />
            <mxPoint x="0.8800000000001091" y="70.00000000000011" as="targetPoint" />
          </mxGeometry>
        </mxCell>
        <mxCell id="hZRU2H-SfIQ9f5EC4YqQ-78" value="&lt;font color=&quot;#4f688c&quot;&gt;Prüfungstermin XXX&lt;br&gt;&lt;/font&gt;" style="html=1;shadow=0;dashed=0;shape=mxgraph.bootstrap.rrect;rSize=5;strokeColor=#6c8ebf;strokeWidth=1;fillColor=#dae8fc;whiteSpace=wrap;align=center;verticalAlign=middle;spacingLeft=0;fontStyle=0;fontSize=16;spacing=5;" parent="hZRU2H-SfIQ9f5EC4YqQ-138" vertex="1">
          <mxGeometry width="440" height="70" as="geometry" />
        </mxCell>
        <mxCell id="hZRU2H-SfIQ9f5EC4YqQ-80" value="" style="html=1;verticalLabelPosition=bottom;align=center;labelBackgroundColor=#ffffff;verticalAlign=top;strokeWidth=2;strokeColor=#7EA6E0;shadow=0;dashed=0;shape=mxgraph.ios7.icons.clock;" parent="hZRU2H-SfIQ9f5EC4YqQ-138" vertex="1">
          <mxGeometry x="10" y="80" width="30" height="30" as="geometry" />
        </mxCell>
        <mxCell id="hZRU2H-SfIQ9f5EC4YqQ-82" value="" style="html=1;verticalLabelPosition=bottom;align=center;labelBackgroundColor=#ffffff;verticalAlign=top;strokeWidth=2;strokeColor=#7EA6E0;shadow=0;dashed=0;shape=mxgraph.ios7.icons.most_viewed;pointerEvents=1" parent="hZRU2H-SfIQ9f5EC4YqQ-138" vertex="1">
          <mxGeometry x="8.800000000000011" y="190" width="28.2" height="22.8" as="geometry" />
        </mxCell>
        <mxCell id="hZRU2H-SfIQ9f5EC4YqQ-83" value="" style="html=1;verticalLabelPosition=bottom;align=center;labelBackgroundColor=#ffffff;verticalAlign=top;strokeWidth=2;strokeColor=#7EA6E0;shadow=0;dashed=0;shape=mxgraph.ios7.icons.location;" parent="hZRU2H-SfIQ9f5EC4YqQ-138" vertex="1">
          <mxGeometry x="13" y="152" width="24" height="30" as="geometry" />
        </mxCell>
        <mxCell id="hZRU2H-SfIQ9f5EC4YqQ-86" value="" style="html=1;verticalLabelPosition=bottom;align=center;labelBackgroundColor=#ffffff;verticalAlign=top;strokeWidth=2;strokeColor=#7EA6E0;shadow=0;dashed=0;shape=mxgraph.ios7.icons.bookmark;" parent="hZRU2H-SfIQ9f5EC4YqQ-138" vertex="1">
          <mxGeometry x="16" y="290" width="18" height="24" as="geometry" />
        </mxCell>
        <mxCell id="hZRU2H-SfIQ9f5EC4YqQ-87" value="" style="html=1;verticalLabelPosition=bottom;align=center;labelBackgroundColor=#ffffff;verticalAlign=top;strokeWidth=2;strokeColor=#7EA6E0;shadow=0;dashed=0;shape=mxgraph.ios7.icons.home;" parent="hZRU2H-SfIQ9f5EC4YqQ-138" vertex="1">
          <mxGeometry x="13" y="119" width="24" height="25.5" as="geometry" />
        </mxCell>
        <mxCell id="hZRU2H-SfIQ9f5EC4YqQ-88" value="&lt;font color=&quot;#4f688c&quot;&gt;Datum und Uhrzeit &lt;/font&gt;" style="text;html=1;align=left;verticalAlign=middle;whiteSpace=wrap;rounded=0;" parent="hZRU2H-SfIQ9f5EC4YqQ-138" vertex="1">
          <mxGeometry x="60" y="79" width="350" height="30" as="geometry" />
        </mxCell>
        <mxCell id="hZRU2H-SfIQ9f5EC4YqQ-89" value="&lt;font color=&quot;#4f688c&quot;&gt;Institut oder Fakultät&lt;br&gt;&lt;/font&gt;" style="text;html=1;align=left;verticalAlign=middle;whiteSpace=wrap;rounded=0;" parent="hZRU2H-SfIQ9f5EC4YqQ-138" vertex="1">
          <mxGeometry x="60" y="114.5" width="350" height="30" as="geometry" />
        </mxCell>
        <mxCell id="hZRU2H-SfIQ9f5EC4YqQ-90" value="&lt;font color=&quot;#4f688c&quot;&gt;Informationen zur Prüfung (Kommentarfeld des Buchenden)&lt;br&gt;&lt;/font&gt;" style="text;html=1;align=left;verticalAlign=middle;whiteSpace=wrap;rounded=0;" parent="hZRU2H-SfIQ9f5EC4YqQ-138" vertex="1">
          <mxGeometry x="60" y="182.8" width="350" height="30" as="geometry" />
        </mxCell>
        <mxCell id="hZRU2H-SfIQ9f5EC4YqQ-91" value="&lt;font color=&quot;#4f688c&quot;&gt;Ort an dem die Prüfung stattfindet&lt;br&gt;&lt;/font&gt;" style="text;html=1;align=left;verticalAlign=middle;whiteSpace=wrap;rounded=0;" parent="hZRU2H-SfIQ9f5EC4YqQ-138" vertex="1">
          <mxGeometry x="60" y="150" width="350" height="30" as="geometry" />
        </mxCell>
        <mxCell id="hZRU2H-SfIQ9f5EC4YqQ-92" value="&lt;font color=&quot;#4f688c&quot;&gt;Zugewiesene Kommentare / Aufgaben / Rolle&lt;br&gt;&lt;/font&gt;" style="text;html=1;align=left;verticalAlign=middle;whiteSpace=wrap;rounded=0;" parent="hZRU2H-SfIQ9f5EC4YqQ-138" vertex="1">
          <mxGeometry x="60" y="290" width="350" height="30" as="geometry" />
        </mxCell>
        <mxCell id="hZRU2H-SfIQ9f5EC4YqQ-113" value="" style="html=1;verticalLabelPosition=bottom;align=center;labelBackgroundColor=#ffffff;verticalAlign=top;strokeWidth=2;strokeColor=#A9C4EB;shadow=0;dashed=0;shape=mxgraph.ios7.icons.lightbulb;" parent="hZRU2H-SfIQ9f5EC4YqQ-138" vertex="1">
          <mxGeometry x="16" y="220" width="22.8" height="29.7" as="geometry" />
        </mxCell>
        <mxCell id="hZRU2H-SfIQ9f5EC4YqQ-114" value="&lt;font color=&quot;#4f688c&quot;&gt;Statusangabe&lt;/font&gt;" style="text;html=1;align=left;verticalAlign=middle;whiteSpace=wrap;rounded=0;" parent="hZRU2H-SfIQ9f5EC4YqQ-138" vertex="1">
          <mxGeometry x="60" y="219.8499999999999" width="350" height="30" as="geometry" />
        </mxCell>
        <mxCell id="hZRU2H-SfIQ9f5EC4YqQ-139" value="" style="group" parent="1" vertex="1" connectable="0">
          <mxGeometry x="-749.5" y="1080" width="670" height="440" as="geometry" />
        </mxCell>
        <mxCell id="hZRU2H-SfIQ9f5EC4YqQ-140" value="" style="endArrow=none;html=1;rounded=0;entryX=0.002;entryY=0.158;entryDx=0;entryDy=0;entryPerimeter=0;" parent="hZRU2H-SfIQ9f5EC4YqQ-139" source="hZRU2H-SfIQ9f5EC4YqQ-142" edge="1">
          <mxGeometry width="50" height="50" relative="1" as="geometry">
            <mxPoint x="667.5783132530121" y="73.41101694915254" as="sourcePoint" />
            <mxPoint x="1.3351566265061896" y="73.41101694915264" as="targetPoint" />
          </mxGeometry>
        </mxCell>
        <mxCell id="hZRU2H-SfIQ9f5EC4YqQ-155" value="" style="rounded=1;whiteSpace=wrap;html=1;arcSize=2;strokeColor=#4F688C;container=1;" parent="hZRU2H-SfIQ9f5EC4YqQ-139" vertex="1">
          <mxGeometry x="-0.8072289156626505" width="670.8072289156627" height="439.99999999999994" as="geometry" />
        </mxCell>
        <mxCell id="hZRU2H-SfIQ9f5EC4YqQ-141" value="" style="endArrow=none;html=1;rounded=0;entryX=0.002;entryY=0.158;entryDx=0;entryDy=0;entryPerimeter=0;" parent="hZRU2H-SfIQ9f5EC4YqQ-139" target="hZRU2H-SfIQ9f5EC4YqQ-142" edge="1">
          <mxGeometry width="50" height="50" relative="1" as="geometry">
            <mxPoint x="667.5783132530121" y="73.41101694915254" as="sourcePoint" />
            <mxPoint x="1.3351566265061896" y="73.41101694915264" as="targetPoint" />
          </mxGeometry>
        </mxCell>
        <mxCell id="hZRU2H-SfIQ9f5EC4YqQ-142" value="&lt;b style=&quot;font-size: 22px;&quot;&gt;&lt;font style=&quot;font-size: 22px;&quot; color=&quot;#4f688c&quot;&gt;Prüfungstermin XXX&lt;br&gt;&lt;/font&gt;&lt;/b&gt;" style="html=1;shadow=0;dashed=0;shape=mxgraph.bootstrap.rrect;rSize=5;strokeColor=#6c8ebf;strokeWidth=1;fillColor=#dae8fc;whiteSpace=wrap;align=center;verticalAlign=middle;spacingLeft=0;fontStyle=0;fontSize=16;spacing=5;" parent="hZRU2H-SfIQ9f5EC4YqQ-139" vertex="1">
          <mxGeometry width="670" height="73.4128813559322" as="geometry" />
        </mxCell>
        <mxCell id="hZRU2H-SfIQ9f5EC4YqQ-143" value="" style="html=1;verticalLabelPosition=bottom;align=center;labelBackgroundColor=#ffffff;verticalAlign=top;strokeWidth=2;strokeColor=#7EA6E0;shadow=0;dashed=0;shape=mxgraph.ios7.icons.clock;" parent="hZRU2H-SfIQ9f5EC4YqQ-139" vertex="1">
          <mxGeometry x="15.175903614457832" y="83.89830508474576" width="41.33012048192771" height="35.423728813559315" as="geometry" />
        </mxCell>
        <mxCell id="hZRU2H-SfIQ9f5EC4YqQ-144" value="" style="html=1;verticalLabelPosition=bottom;align=center;labelBackgroundColor=#ffffff;verticalAlign=top;strokeWidth=2;strokeColor=#7EA6E0;shadow=0;dashed=0;shape=mxgraph.ios7.icons.most_viewed;pointerEvents=1" parent="hZRU2H-SfIQ9f5EC4YqQ-139" vertex="1">
          <mxGeometry x="13.35156626506024" y="199.26033898305084" width="43.1544578313253" height="24.468474576271188" as="geometry" />
        </mxCell>
        <mxCell id="hZRU2H-SfIQ9f5EC4YqQ-145" value="" style="html=1;verticalLabelPosition=bottom;align=center;labelBackgroundColor=#ffffff;verticalAlign=top;strokeWidth=2;strokeColor=#7EA6E0;shadow=0;dashed=0;shape=mxgraph.ios7.icons.location;" parent="hZRU2H-SfIQ9f5EC4YqQ-139" vertex="1">
          <mxGeometry x="19.720602409638552" y="159.40677966101694" width="36.785421686746986" height="34.49152542372882" as="geometry" />
        </mxCell>
        <mxCell id="hZRU2H-SfIQ9f5EC4YqQ-146" value="" style="html=1;verticalLabelPosition=bottom;align=center;labelBackgroundColor=#ffffff;verticalAlign=top;strokeWidth=2;strokeColor=#7EA6E0;shadow=0;dashed=0;shape=mxgraph.ios7.icons.bookmark;" parent="hZRU2H-SfIQ9f5EC4YqQ-139" vertex="1">
          <mxGeometry x="24.273373493975903" y="295.18033898305083" width="32.232650602409635" height="31.463728813559317" as="geometry" />
        </mxCell>
        <mxCell id="hZRU2H-SfIQ9f5EC4YqQ-147" value="" style="html=1;verticalLabelPosition=bottom;align=center;labelBackgroundColor=#ffffff;verticalAlign=top;strokeWidth=2;strokeColor=#7EA6E0;shadow=0;dashed=0;shape=mxgraph.ios7.icons.home;" parent="hZRU2H-SfIQ9f5EC4YqQ-139" vertex="1">
          <mxGeometry x="19.720602409638552" y="124.79593220338982" width="36.785421686746986" height="31.814237288135583" as="geometry" />
        </mxCell>
        <mxCell id="hZRU2H-SfIQ9f5EC4YqQ-148" value="&lt;font style=&quot;font-size: 16px;&quot; color=&quot;#4f688c&quot;&gt;Datum und Uhrzeit &lt;/font&gt;" style="text;html=1;align=left;verticalAlign=middle;whiteSpace=wrap;rounded=0;" parent="hZRU2H-SfIQ9f5EC4YqQ-139" vertex="1">
          <mxGeometry x="86.37569550930995" y="85.87737288135592" width="531.0282037239867" height="31.461864406779657" as="geometry" />
        </mxCell>
        <mxCell id="hZRU2H-SfIQ9f5EC4YqQ-149" value="&lt;font style=&quot;font-size: 16px;&quot; color=&quot;#4f688c&quot;&gt;Institut oder Fakultät&lt;br&gt;&lt;/font&gt;" style="text;html=1;align=left;verticalAlign=middle;whiteSpace=wrap;rounded=0;" parent="hZRU2H-SfIQ9f5EC4YqQ-139" vertex="1">
          <mxGeometry x="86.37569550930995" y="125.84419491525422" width="531.0282037239867" height="31.461864406779657" as="geometry" />
        </mxCell>
        <mxCell id="hZRU2H-SfIQ9f5EC4YqQ-150" value="&lt;font style=&quot;font-size: 16px;&quot; color=&quot;#4f688c&quot;&gt;Informationen zur Prüfung (Kommentarfeld des Buchenden)&lt;br&gt;&lt;/font&gt;" style="text;html=1;align=left;verticalAlign=middle;whiteSpace=wrap;rounded=0;" parent="hZRU2H-SfIQ9f5EC4YqQ-139" vertex="1">
          <mxGeometry x="86.37569550930995" y="199.26220338983052" width="531.0282037239867" height="31.461864406779657" as="geometry" />
        </mxCell>
        <mxCell id="hZRU2H-SfIQ9f5EC4YqQ-151" value="&lt;font style=&quot;font-size: 16px;&quot; color=&quot;#4f688c&quot;&gt;Ort an dem die Prüfung stattfindet&lt;br&gt;&lt;/font&gt;" style="text;html=1;align=left;verticalAlign=middle;whiteSpace=wrap;rounded=0;" parent="hZRU2H-SfIQ9f5EC4YqQ-139" vertex="1">
          <mxGeometry x="86.37569550930995" y="162.44016949152538" width="531.0282037239867" height="31.461864406779657" as="geometry" />
        </mxCell>
        <mxCell id="hZRU2H-SfIQ9f5EC4YqQ-152" value="&lt;font style=&quot;font-size: 16px;&quot; color=&quot;#4f688c&quot;&gt;Zugewiesene Kommentare / Aufgaben / Rolle&lt;br&gt;&lt;/font&gt;" style="text;html=1;align=left;verticalAlign=middle;whiteSpace=wrap;rounded=0;" parent="hZRU2H-SfIQ9f5EC4YqQ-139" vertex="1">
          <mxGeometry x="86.37569550930995" y="295.1822033898305" width="531.0282037239867" height="31.461864406779657" as="geometry" />
        </mxCell>
        <mxCell id="hZRU2H-SfIQ9f5EC4YqQ-153" value="" style="html=1;verticalLabelPosition=bottom;align=center;labelBackgroundColor=#ffffff;verticalAlign=top;strokeWidth=2;strokeColor=#A9C4EB;shadow=0;dashed=0;shape=mxgraph.ios7.icons.lightbulb;" parent="hZRU2H-SfIQ9f5EC4YqQ-139" vertex="1">
          <mxGeometry x="24.273373493975903" y="230.72406779661014" width="32.232650602409635" height="30.300338983050846" as="geometry" />
        </mxCell>
        <mxCell id="hZRU2H-SfIQ9f5EC4YqQ-154" value="&lt;font style=&quot;font-size: 16px;&quot; color=&quot;#4f688c&quot;&gt;Statusangabe&lt;/font&gt;" style="text;html=1;align=left;verticalAlign=middle;whiteSpace=wrap;rounded=0;" parent="hZRU2H-SfIQ9f5EC4YqQ-139" vertex="1">
          <mxGeometry x="86.37569550930995" y="229.56370762711856" width="531.0282037239867" height="31.461864406779657" as="geometry" />
        </mxCell>
        <mxCell id="hZRU2H-SfIQ9f5EC4YqQ-156" value="&lt;div&gt;&lt;font style=&quot;font-size: 15px;&quot; color=&quot;#4f688c&quot;&gt;Checkliste&lt;/font&gt;&lt;/div&gt;" style="strokeWidth=1;shadow=0;dashed=0;align=center;html=1;shape=mxgraph.mockup.buttons.button;strokeColor=#6c8ebf;mainText=;buttonStyle=round;fontSize=17;fontStyle=1;fillColor=#dae8fc;whiteSpace=wrap;" parent="hZRU2H-SfIQ9f5EC4YqQ-139" vertex="1">
          <mxGeometry x="56.50602409638554" y="387.7966101694915" width="104.93975903614457" height="37.28813559322033" as="geometry" />
        </mxCell>
        <mxCell id="hZRU2H-SfIQ9f5EC4YqQ-157" value="&lt;font style=&quot;font-size: 15px;&quot; color=&quot;#ffffff&quot;&gt;&lt;span style=&quot;font-weight: normal;&quot;&gt;Termin&lt;/span&gt; &lt;span style=&quot;font-weight: normal;&quot;&gt;ablehnen&lt;/span&gt;&lt;/font&gt;" style="strokeWidth=1;shadow=0;dashed=0;align=center;html=1;shape=mxgraph.mockup.buttons.button;strokeColor=#A680B8;mainText=;buttonStyle=round;fontSize=17;fontStyle=1;fillColor=#CDA2BE;whiteSpace=wrap;" parent="hZRU2H-SfIQ9f5EC4YqQ-139" vertex="1">
          <mxGeometry x="531.1566265060239" y="387.7966101694915" width="106.55421686746988" height="37.28813559322033" as="geometry" />
        </mxCell>
        <mxCell id="hZRU2H-SfIQ9f5EC4YqQ-158" value="" style="html=1;verticalLabelPosition=bottom;align=center;labelBackgroundColor=#ffffff;verticalAlign=top;strokeWidth=2;strokeColor=#7EA6E0;shadow=0;dashed=0;shape=mxgraph.ios7.icons.edit;" parent="hZRU2H-SfIQ9f5EC4YqQ-139" vertex="1">
          <mxGeometry x="26.251084337349404" y="335.59322033898303" width="30.25493975903614" height="29.83050847457627" as="geometry" />
        </mxCell>
        <mxCell id="hZRU2H-SfIQ9f5EC4YqQ-159" value="&lt;div&gt;&lt;br&gt;&lt;/div&gt;&lt;div&gt;&lt;br&gt;&lt;/div&gt;&lt;div align=&quot;left&quot;&gt;&lt;font color=&quot;#4f688c&quot;&gt;&lt;br&gt;&lt;/font&gt;&lt;/div&gt;&lt;div align=&quot;left&quot;&gt;&lt;font color=&quot;#4f688c&quot;&gt;eigene Notizen&lt;/font&gt;&lt;/div&gt;&lt;div align=&quot;left&quot;&gt;&lt;font color=&quot;#4f688c&quot;&gt;&lt;br&gt;&lt;/font&gt;&lt;/div&gt;&lt;div align=&quot;left&quot;&gt;&lt;font color=&quot;#4f688c&quot;&gt;&lt;br&gt;&lt;/font&gt;&lt;/div&gt;&lt;div align=&quot;left&quot;&gt;&lt;font color=&quot;#4f688c&quot;&gt;&lt;br&gt;&lt;/font&gt;&lt;/div&gt;&lt;div align=&quot;left&quot;&gt;&lt;font color=&quot;#4f688c&quot;&gt;&lt;br&gt;&lt;/font&gt;&lt;/div&gt;" style="rounded=1;whiteSpace=wrap;html=1;strokeColor=#A9C4EB;align=left;" parent="hZRU2H-SfIQ9f5EC4YqQ-139" vertex="1">
          <mxGeometry x="86.37349397590361" y="335.59322033898303" width="519.0481927710844" height="37.28813559322033" as="geometry" />
        </mxCell>
        <mxCell id="hZRU2H-SfIQ9f5EC4YqQ-160" value="&lt;font size=&quot;1&quot;&gt;&lt;u style=&quot;font-size: 14px;&quot;&gt;Bearbeiten&lt;/u&gt;&lt;/font&gt;" style="html=1;shadow=0;dashed=0;shape=mxgraph.bootstrap.rrect;rSize=5;strokeColor=none;strokeWidth=1;fillColor=none;fontColor=#0085FC;whiteSpace=wrap;align=center;verticalAlign=middle;spacingLeft=0;fontStyle=0;fontSize=16;spacing=5;" parent="hZRU2H-SfIQ9f5EC4YqQ-139" vertex="1">
          <mxGeometry x="523.0843373493975" y="350.0610169491526" width="88.79518072289156" height="22.82033898305085" as="geometry" />
        </mxCell>
        <mxCell id="hZRU2H-SfIQ9f5EC4YqQ-161" value="Filterkategorie" style="html=1;shadow=0;dashed=0;shape=mxgraph.bootstrap.rrect;rSize=5;strokeColor=#ABABAB;strokeWidth=1;fillColor=#ffffff;fontColor=#777777;whiteSpace=wrap;align=left;verticalAlign=middle;fontStyle=0;fontSize=14;spacingRight=0;spacing=17;" parent="1" vertex="1">
          <mxGeometry x="-630" y="1000" width="550" height="30" as="geometry" />
        </mxCell>
        <mxCell id="hZRU2H-SfIQ9f5EC4YqQ-162" value="" style="shape=triangle;direction=south;fillColor=#495057;strokeColor=none;perimeter=none;" parent="hZRU2H-SfIQ9f5EC4YqQ-161" vertex="1">
          <mxGeometry x="1" y="0.5" width="10" height="5" relative="1" as="geometry">
            <mxPoint x="-17" y="-2.5" as="offset" />
          </mxGeometry>
        </mxCell>
        <mxCell id="hZRU2H-SfIQ9f5EC4YqQ-163" value="persönliche Termine" style="html=1;shadow=0;dashed=0;shape=mxgraph.bootstrap.rrect;rSize=5;fillColor=#ffffff;strokeColor=#999999;align=left;spacing=15;fontSize=14;fontColor=#6C767D;" parent="1" vertex="1">
          <mxGeometry x="-810" y="1000" width="160" height="30" as="geometry" />
        </mxCell>
        <mxCell id="hZRU2H-SfIQ9f5EC4YqQ-164" value="" style="shape=triangle;direction=south;fillColor=#343A40;strokeColor=none;perimeter=none;sketch=0;" parent="hZRU2H-SfIQ9f5EC4YqQ-163" vertex="1">
          <mxGeometry x="1" y="0.5" width="7" height="3" relative="1" as="geometry">
            <mxPoint x="-17" y="1" as="offset" />
          </mxGeometry>
        </mxCell>
        <mxCell id="hZRU2H-SfIQ9f5EC4YqQ-165" value="" style="shape=triangle;direction=north;fillColor=#343A40;strokeColor=none;perimeter=none;sketch=0;" parent="hZRU2H-SfIQ9f5EC4YqQ-163" vertex="1">
          <mxGeometry x="1" y="0.5" width="7" height="3" relative="1" as="geometry">
            <mxPoint x="-17" y="-4" as="offset" />
          </mxGeometry>
        </mxCell>
        <mxCell id="hZRU2H-SfIQ9f5EC4YqQ-166" value="" style="group" parent="1" vertex="1" connectable="0">
          <mxGeometry x="-749.5" y="1560" width="670" height="440" as="geometry" />
        </mxCell>
        <mxCell id="hZRU2H-SfIQ9f5EC4YqQ-167" value="" style="endArrow=none;html=1;rounded=0;entryX=0.002;entryY=0.158;entryDx=0;entryDy=0;entryPerimeter=0;" parent="hZRU2H-SfIQ9f5EC4YqQ-166" source="hZRU2H-SfIQ9f5EC4YqQ-170" edge="1">
          <mxGeometry width="50" height="50" relative="1" as="geometry">
            <mxPoint x="667.5783132530121" y="73.41101694915254" as="sourcePoint" />
            <mxPoint x="1.3351566265061896" y="73.41101694915264" as="targetPoint" />
          </mxGeometry>
        </mxCell>
        <mxCell id="hZRU2H-SfIQ9f5EC4YqQ-168" value="" style="rounded=1;whiteSpace=wrap;html=1;arcSize=2;strokeColor=#4F688C;container=1;" parent="hZRU2H-SfIQ9f5EC4YqQ-166" vertex="1">
          <mxGeometry x="-0.8072289156626505" width="670.8072289156627" height="439.99999999999994" as="geometry" />
        </mxCell>
        <mxCell id="hZRU2H-SfIQ9f5EC4YqQ-169" value="" style="endArrow=none;html=1;rounded=0;entryX=0.002;entryY=0.158;entryDx=0;entryDy=0;entryPerimeter=0;" parent="hZRU2H-SfIQ9f5EC4YqQ-166" target="hZRU2H-SfIQ9f5EC4YqQ-170" edge="1">
          <mxGeometry width="50" height="50" relative="1" as="geometry">
            <mxPoint x="667.5783132530121" y="73.41101694915254" as="sourcePoint" />
            <mxPoint x="1.3351566265061896" y="73.41101694915264" as="targetPoint" />
          </mxGeometry>
        </mxCell>
        <mxCell id="hZRU2H-SfIQ9f5EC4YqQ-170" value="&lt;b style=&quot;font-size: 22px;&quot;&gt;&lt;font style=&quot;font-size: 22px;&quot; color=&quot;#4f688c&quot;&gt;Prüfungstermin XXX&lt;br&gt;&lt;/font&gt;&lt;/b&gt;" style="html=1;shadow=0;dashed=0;shape=mxgraph.bootstrap.rrect;rSize=5;strokeColor=#6c8ebf;strokeWidth=1;fillColor=#dae8fc;whiteSpace=wrap;align=center;verticalAlign=middle;spacingLeft=0;fontStyle=0;fontSize=16;spacing=5;" parent="hZRU2H-SfIQ9f5EC4YqQ-166" vertex="1">
          <mxGeometry width="670" height="73.4128813559322" as="geometry" />
        </mxCell>
        <mxCell id="hZRU2H-SfIQ9f5EC4YqQ-171" value="" style="html=1;verticalLabelPosition=bottom;align=center;labelBackgroundColor=#ffffff;verticalAlign=top;strokeWidth=2;strokeColor=#7EA6E0;shadow=0;dashed=0;shape=mxgraph.ios7.icons.clock;" parent="hZRU2H-SfIQ9f5EC4YqQ-166" vertex="1">
          <mxGeometry x="16.17590361445783" y="83.89830508474576" width="41.33012048192771" height="35.423728813559315" as="geometry" />
        </mxCell>
        <mxCell id="hZRU2H-SfIQ9f5EC4YqQ-172" value="" style="html=1;verticalLabelPosition=bottom;align=center;labelBackgroundColor=#ffffff;verticalAlign=top;strokeWidth=2;strokeColor=#7EA6E0;shadow=0;dashed=0;shape=mxgraph.ios7.icons.most_viewed;pointerEvents=1" parent="hZRU2H-SfIQ9f5EC4YqQ-166" vertex="1">
          <mxGeometry x="13.35156626506024" y="199.26033898305084" width="43.1544578313253" height="24.468474576271188" as="geometry" />
        </mxCell>
        <mxCell id="hZRU2H-SfIQ9f5EC4YqQ-173" value="" style="html=1;verticalLabelPosition=bottom;align=center;labelBackgroundColor=#ffffff;verticalAlign=top;strokeWidth=2;strokeColor=#7EA6E0;shadow=0;dashed=0;shape=mxgraph.ios7.icons.location;" parent="hZRU2H-SfIQ9f5EC4YqQ-166" vertex="1">
          <mxGeometry x="19.720602409638552" y="159.40677966101694" width="36.785421686746986" height="34.49152542372882" as="geometry" />
        </mxCell>
        <mxCell id="hZRU2H-SfIQ9f5EC4YqQ-174" value="" style="html=1;verticalLabelPosition=bottom;align=center;labelBackgroundColor=#ffffff;verticalAlign=top;strokeWidth=2;strokeColor=#7EA6E0;shadow=0;dashed=0;shape=mxgraph.ios7.icons.bookmark;" parent="hZRU2H-SfIQ9f5EC4YqQ-166" vertex="1">
          <mxGeometry x="24.273373493975903" y="295.18033898305083" width="32.232650602409635" height="31.463728813559317" as="geometry" />
        </mxCell>
        <mxCell id="hZRU2H-SfIQ9f5EC4YqQ-175" value="" style="html=1;verticalLabelPosition=bottom;align=center;labelBackgroundColor=#ffffff;verticalAlign=top;strokeWidth=2;strokeColor=#7EA6E0;shadow=0;dashed=0;shape=mxgraph.ios7.icons.home;" parent="hZRU2H-SfIQ9f5EC4YqQ-166" vertex="1">
          <mxGeometry x="19.720602409638552" y="124.79593220338982" width="36.785421686746986" height="31.814237288135583" as="geometry" />
        </mxCell>
        <mxCell id="hZRU2H-SfIQ9f5EC4YqQ-176" value="&lt;font style=&quot;font-size: 16px;&quot; color=&quot;#4f688c&quot;&gt;Datum und Uhrzeit &lt;/font&gt;" style="text;html=1;align=left;verticalAlign=middle;whiteSpace=wrap;rounded=0;" parent="hZRU2H-SfIQ9f5EC4YqQ-166" vertex="1">
          <mxGeometry x="86.37569550930995" y="85.87737288135592" width="531.0282037239867" height="31.461864406779657" as="geometry" />
        </mxCell>
        <mxCell id="hZRU2H-SfIQ9f5EC4YqQ-177" value="&lt;font style=&quot;font-size: 16px;&quot; color=&quot;#4f688c&quot;&gt;Institut oder Fakultät&lt;br&gt;&lt;/font&gt;" style="text;html=1;align=left;verticalAlign=middle;whiteSpace=wrap;rounded=0;" parent="hZRU2H-SfIQ9f5EC4YqQ-166" vertex="1">
          <mxGeometry x="86.37569550930995" y="125.84419491525422" width="531.0282037239867" height="31.461864406779657" as="geometry" />
        </mxCell>
        <mxCell id="hZRU2H-SfIQ9f5EC4YqQ-178" value="&lt;font style=&quot;font-size: 16px;&quot; color=&quot;#4f688c&quot;&gt;Informationen zur Prüfung (Kommentarfeld des Buchenden)&lt;br&gt;&lt;/font&gt;" style="text;html=1;align=left;verticalAlign=middle;whiteSpace=wrap;rounded=0;" parent="hZRU2H-SfIQ9f5EC4YqQ-166" vertex="1">
          <mxGeometry x="86.37569550930995" y="199.26220338983052" width="531.0282037239867" height="31.461864406779657" as="geometry" />
        </mxCell>
        <mxCell id="hZRU2H-SfIQ9f5EC4YqQ-179" value="&lt;font style=&quot;font-size: 16px;&quot; color=&quot;#4f688c&quot;&gt;Ort an dem die Prüfung stattfindet&lt;br&gt;&lt;/font&gt;" style="text;html=1;align=left;verticalAlign=middle;whiteSpace=wrap;rounded=0;" parent="hZRU2H-SfIQ9f5EC4YqQ-166" vertex="1">
          <mxGeometry x="86.37569550930995" y="162.44016949152538" width="531.0282037239867" height="31.461864406779657" as="geometry" />
        </mxCell>
        <mxCell id="hZRU2H-SfIQ9f5EC4YqQ-180" value="&lt;font style=&quot;font-size: 16px;&quot; color=&quot;#4f688c&quot;&gt;Zugewiesene Kommentare / Aufgaben / Rolle&lt;br&gt;&lt;/font&gt;" style="text;html=1;align=left;verticalAlign=middle;whiteSpace=wrap;rounded=0;" parent="hZRU2H-SfIQ9f5EC4YqQ-166" vertex="1">
          <mxGeometry x="86.37569550930995" y="295.1822033898305" width="531.0282037239867" height="31.461864406779657" as="geometry" />
        </mxCell>
        <mxCell id="hZRU2H-SfIQ9f5EC4YqQ-181" value="" style="html=1;verticalLabelPosition=bottom;align=center;labelBackgroundColor=#ffffff;verticalAlign=top;strokeWidth=2;strokeColor=#A9C4EB;shadow=0;dashed=0;shape=mxgraph.ios7.icons.lightbulb;" parent="hZRU2H-SfIQ9f5EC4YqQ-166" vertex="1">
          <mxGeometry x="24.273373493975903" y="230.72406779661014" width="32.232650602409635" height="30.300338983050846" as="geometry" />
        </mxCell>
        <mxCell id="hZRU2H-SfIQ9f5EC4YqQ-182" value="&lt;font style=&quot;font-size: 16px;&quot; color=&quot;#4f688c&quot;&gt;Statusangabe&lt;/font&gt;" style="text;html=1;align=left;verticalAlign=middle;whiteSpace=wrap;rounded=0;" parent="hZRU2H-SfIQ9f5EC4YqQ-166" vertex="1">
          <mxGeometry x="86.37569550930995" y="229.56370762711856" width="531.0282037239867" height="31.461864406779657" as="geometry" />
        </mxCell>
        <mxCell id="hZRU2H-SfIQ9f5EC4YqQ-183" value="&lt;div&gt;&lt;font style=&quot;font-size: 15px;&quot; color=&quot;#4f688c&quot;&gt;Checkliste&lt;/font&gt;&lt;/div&gt;" style="strokeWidth=1;shadow=0;dashed=0;align=center;html=1;shape=mxgraph.mockup.buttons.button;strokeColor=#6c8ebf;mainText=;buttonStyle=round;fontSize=17;fontStyle=1;fillColor=#dae8fc;whiteSpace=wrap;" parent="hZRU2H-SfIQ9f5EC4YqQ-166" vertex="1">
          <mxGeometry x="56.50602409638554" y="387.7966101694915" width="104.93975903614457" height="37.28813559322033" as="geometry" />
        </mxCell>
        <mxCell id="hZRU2H-SfIQ9f5EC4YqQ-184" value="&lt;font style=&quot;font-size: 15px;&quot; color=&quot;#ffffff&quot;&gt;&lt;span style=&quot;font-weight: normal;&quot;&gt;Termin&lt;/span&gt; &lt;span style=&quot;font-weight: normal;&quot;&gt;ablehnen&lt;/span&gt;&lt;/font&gt;" style="strokeWidth=1;shadow=0;dashed=0;align=center;html=1;shape=mxgraph.mockup.buttons.button;strokeColor=#A680B8;mainText=;buttonStyle=round;fontSize=17;fontStyle=1;fillColor=#CDA2BE;whiteSpace=wrap;" parent="hZRU2H-SfIQ9f5EC4YqQ-166" vertex="1">
          <mxGeometry x="531.1566265060239" y="387.7966101694915" width="106.55421686746988" height="37.28813559322033" as="geometry" />
        </mxCell>
        <mxCell id="hZRU2H-SfIQ9f5EC4YqQ-185" value="" style="html=1;verticalLabelPosition=bottom;align=center;labelBackgroundColor=#ffffff;verticalAlign=top;strokeWidth=2;strokeColor=#7EA6E0;shadow=0;dashed=0;shape=mxgraph.ios7.icons.edit;" parent="hZRU2H-SfIQ9f5EC4YqQ-166" vertex="1">
          <mxGeometry x="26.251084337349404" y="335.59322033898303" width="30.25493975903614" height="29.83050847457627" as="geometry" />
        </mxCell>
        <mxCell id="hZRU2H-SfIQ9f5EC4YqQ-186" value="&lt;div&gt;&lt;br&gt;&lt;/div&gt;&lt;div&gt;&lt;br&gt;&lt;/div&gt;&lt;div align=&quot;left&quot;&gt;&lt;font color=&quot;#4f688c&quot;&gt;&lt;br&gt;&lt;/font&gt;&lt;/div&gt;&lt;div align=&quot;left&quot;&gt;&lt;font color=&quot;#4f688c&quot;&gt;eigene Notizen&lt;/font&gt;&lt;/div&gt;&lt;div align=&quot;left&quot;&gt;&lt;font color=&quot;#4f688c&quot;&gt;&lt;br&gt;&lt;/font&gt;&lt;/div&gt;&lt;div align=&quot;left&quot;&gt;&lt;font color=&quot;#4f688c&quot;&gt;&lt;br&gt;&lt;/font&gt;&lt;/div&gt;&lt;div align=&quot;left&quot;&gt;&lt;font color=&quot;#4f688c&quot;&gt;&lt;br&gt;&lt;/font&gt;&lt;/div&gt;&lt;div align=&quot;left&quot;&gt;&lt;font color=&quot;#4f688c&quot;&gt;&lt;br&gt;&lt;/font&gt;&lt;/div&gt;" style="rounded=1;whiteSpace=wrap;html=1;strokeColor=#A9C4EB;align=left;" parent="hZRU2H-SfIQ9f5EC4YqQ-166" vertex="1">
          <mxGeometry x="86.37349397590361" y="335.59322033898303" width="519.0481927710844" height="37.28813559322033" as="geometry" />
        </mxCell>
        <mxCell id="hZRU2H-SfIQ9f5EC4YqQ-187" value="&lt;font size=&quot;1&quot;&gt;&lt;u style=&quot;font-size: 14px;&quot;&gt;Bearbeiten&lt;/u&gt;&lt;/font&gt;" style="html=1;shadow=0;dashed=0;shape=mxgraph.bootstrap.rrect;rSize=5;strokeColor=none;strokeWidth=1;fillColor=none;fontColor=#0085FC;whiteSpace=wrap;align=center;verticalAlign=middle;spacingLeft=0;fontStyle=0;fontSize=16;spacing=5;" parent="hZRU2H-SfIQ9f5EC4YqQ-166" vertex="1">
          <mxGeometry x="523.0843373493975" y="350.0610169491526" width="88.79518072289156" height="22.82033898305085" as="geometry" />
        </mxCell>
        <mxCell id="hZRU2H-SfIQ9f5EC4YqQ-188" value="" style="group" parent="1" vertex="1" connectable="0">
          <mxGeometry x="-748" y="2040" width="670" height="440" as="geometry" />
        </mxCell>
        <mxCell id="hZRU2H-SfIQ9f5EC4YqQ-189" value="" style="endArrow=none;html=1;rounded=0;entryX=0.002;entryY=0.158;entryDx=0;entryDy=0;entryPerimeter=0;" parent="hZRU2H-SfIQ9f5EC4YqQ-188" source="hZRU2H-SfIQ9f5EC4YqQ-192" edge="1">
          <mxGeometry width="50" height="50" relative="1" as="geometry">
            <mxPoint x="667.5783132530121" y="73.41101694915254" as="sourcePoint" />
            <mxPoint x="1.3351566265061896" y="73.41101694915264" as="targetPoint" />
          </mxGeometry>
        </mxCell>
        <mxCell id="hZRU2H-SfIQ9f5EC4YqQ-190" value="" style="rounded=1;whiteSpace=wrap;html=1;arcSize=2;strokeColor=#4F688C;container=1;" parent="hZRU2H-SfIQ9f5EC4YqQ-188" vertex="1">
          <mxGeometry x="-0.8072289156626505" width="670.8072289156627" height="439.99999999999994" as="geometry" />
        </mxCell>
        <mxCell id="hZRU2H-SfIQ9f5EC4YqQ-191" value="" style="endArrow=none;html=1;rounded=0;entryX=0.002;entryY=0.158;entryDx=0;entryDy=0;entryPerimeter=0;" parent="hZRU2H-SfIQ9f5EC4YqQ-188" target="hZRU2H-SfIQ9f5EC4YqQ-192" edge="1">
          <mxGeometry width="50" height="50" relative="1" as="geometry">
            <mxPoint x="667.5783132530121" y="73.41101694915254" as="sourcePoint" />
            <mxPoint x="1.3351566265061896" y="73.41101694915264" as="targetPoint" />
          </mxGeometry>
        </mxCell>
        <mxCell id="hZRU2H-SfIQ9f5EC4YqQ-192" value="&lt;b style=&quot;font-size: 22px;&quot;&gt;&lt;font style=&quot;font-size: 22px;&quot; color=&quot;#4f688c&quot;&gt;Prüfungstermin XXX&lt;br&gt;&lt;/font&gt;&lt;/b&gt;" style="html=1;shadow=0;dashed=0;shape=mxgraph.bootstrap.rrect;rSize=5;strokeColor=#6c8ebf;strokeWidth=1;fillColor=#dae8fc;whiteSpace=wrap;align=center;verticalAlign=middle;spacingLeft=0;fontStyle=0;fontSize=16;spacing=5;" parent="hZRU2H-SfIQ9f5EC4YqQ-188" vertex="1">
          <mxGeometry width="670" height="73.4128813559322" as="geometry" />
        </mxCell>
        <mxCell id="hZRU2H-SfIQ9f5EC4YqQ-193" value="" style="html=1;verticalLabelPosition=bottom;align=center;labelBackgroundColor=#ffffff;verticalAlign=top;strokeWidth=2;strokeColor=#7EA6E0;shadow=0;dashed=0;shape=mxgraph.ios7.icons.clock;" parent="hZRU2H-SfIQ9f5EC4YqQ-188" vertex="1">
          <mxGeometry x="15.175903614457832" y="83.89830508474576" width="41.33012048192771" height="35.423728813559315" as="geometry" />
        </mxCell>
        <mxCell id="hZRU2H-SfIQ9f5EC4YqQ-194" value="" style="html=1;verticalLabelPosition=bottom;align=center;labelBackgroundColor=#ffffff;verticalAlign=top;strokeWidth=2;strokeColor=#7EA6E0;shadow=0;dashed=0;shape=mxgraph.ios7.icons.most_viewed;pointerEvents=1" parent="hZRU2H-SfIQ9f5EC4YqQ-188" vertex="1">
          <mxGeometry x="13.35156626506024" y="199.26033898305084" width="43.1544578313253" height="24.468474576271188" as="geometry" />
        </mxCell>
        <mxCell id="hZRU2H-SfIQ9f5EC4YqQ-195" value="" style="html=1;verticalLabelPosition=bottom;align=center;labelBackgroundColor=#ffffff;verticalAlign=top;strokeWidth=2;strokeColor=#7EA6E0;shadow=0;dashed=0;shape=mxgraph.ios7.icons.location;" parent="hZRU2H-SfIQ9f5EC4YqQ-188" vertex="1">
          <mxGeometry x="19.720602409638552" y="159.40677966101694" width="36.785421686746986" height="34.49152542372882" as="geometry" />
        </mxCell>
        <mxCell id="hZRU2H-SfIQ9f5EC4YqQ-196" value="" style="html=1;verticalLabelPosition=bottom;align=center;labelBackgroundColor=#ffffff;verticalAlign=top;strokeWidth=2;strokeColor=#7EA6E0;shadow=0;dashed=0;shape=mxgraph.ios7.icons.bookmark;" parent="hZRU2H-SfIQ9f5EC4YqQ-188" vertex="1">
          <mxGeometry x="24.273373493975903" y="295.18033898305083" width="32.232650602409635" height="31.463728813559317" as="geometry" />
        </mxCell>
        <mxCell id="hZRU2H-SfIQ9f5EC4YqQ-197" value="" style="html=1;verticalLabelPosition=bottom;align=center;labelBackgroundColor=#ffffff;verticalAlign=top;strokeWidth=2;strokeColor=#7EA6E0;shadow=0;dashed=0;shape=mxgraph.ios7.icons.home;" parent="hZRU2H-SfIQ9f5EC4YqQ-188" vertex="1">
          <mxGeometry x="19.720602409638552" y="124.79593220338982" width="36.785421686746986" height="31.814237288135583" as="geometry" />
        </mxCell>
        <mxCell id="hZRU2H-SfIQ9f5EC4YqQ-198" value="&lt;font style=&quot;font-size: 16px;&quot; color=&quot;#4f688c&quot;&gt;Datum und Uhrzeit &lt;/font&gt;" style="text;html=1;align=left;verticalAlign=middle;whiteSpace=wrap;rounded=0;" parent="hZRU2H-SfIQ9f5EC4YqQ-188" vertex="1">
          <mxGeometry x="86.37569550930995" y="85.87737288135592" width="531.0282037239867" height="31.461864406779657" as="geometry" />
        </mxCell>
        <mxCell id="hZRU2H-SfIQ9f5EC4YqQ-199" value="&lt;font style=&quot;font-size: 16px;&quot; color=&quot;#4f688c&quot;&gt;Institut oder Fakultät&lt;br&gt;&lt;/font&gt;" style="text;html=1;align=left;verticalAlign=middle;whiteSpace=wrap;rounded=0;" parent="hZRU2H-SfIQ9f5EC4YqQ-188" vertex="1">
          <mxGeometry x="86.37569550930995" y="125.84419491525422" width="531.0282037239867" height="31.461864406779657" as="geometry" />
        </mxCell>
        <mxCell id="hZRU2H-SfIQ9f5EC4YqQ-200" value="&lt;font style=&quot;font-size: 16px;&quot; color=&quot;#4f688c&quot;&gt;Informationen zur Prüfung (Kommentarfeld des Buchenden)&lt;br&gt;&lt;/font&gt;" style="text;html=1;align=left;verticalAlign=middle;whiteSpace=wrap;rounded=0;" parent="hZRU2H-SfIQ9f5EC4YqQ-188" vertex="1">
          <mxGeometry x="86.37569550930995" y="199.26220338983052" width="531.0282037239867" height="31.461864406779657" as="geometry" />
        </mxCell>
        <mxCell id="hZRU2H-SfIQ9f5EC4YqQ-201" value="&lt;font style=&quot;font-size: 16px;&quot; color=&quot;#4f688c&quot;&gt;Ort an dem die Prüfung stattfindet&lt;br&gt;&lt;/font&gt;" style="text;html=1;align=left;verticalAlign=middle;whiteSpace=wrap;rounded=0;" parent="hZRU2H-SfIQ9f5EC4YqQ-188" vertex="1">
          <mxGeometry x="86.37569550930995" y="162.44016949152538" width="531.0282037239867" height="31.461864406779657" as="geometry" />
        </mxCell>
        <mxCell id="hZRU2H-SfIQ9f5EC4YqQ-202" value="&lt;font style=&quot;font-size: 16px;&quot; color=&quot;#4f688c&quot;&gt;Zugewiesene Kommentare / Aufgaben / Rolle&lt;br&gt;&lt;/font&gt;" style="text;html=1;align=left;verticalAlign=middle;whiteSpace=wrap;rounded=0;" parent="hZRU2H-SfIQ9f5EC4YqQ-188" vertex="1">
          <mxGeometry x="86.37569550930995" y="295.1822033898305" width="531.0282037239867" height="31.461864406779657" as="geometry" />
        </mxCell>
        <mxCell id="hZRU2H-SfIQ9f5EC4YqQ-203" value="" style="html=1;verticalLabelPosition=bottom;align=center;labelBackgroundColor=#ffffff;verticalAlign=top;strokeWidth=2;strokeColor=#A9C4EB;shadow=0;dashed=0;shape=mxgraph.ios7.icons.lightbulb;" parent="hZRU2H-SfIQ9f5EC4YqQ-188" vertex="1">
          <mxGeometry x="24.273373493975903" y="230.72406779661014" width="32.232650602409635" height="30.300338983050846" as="geometry" />
        </mxCell>
        <mxCell id="hZRU2H-SfIQ9f5EC4YqQ-204" value="&lt;font style=&quot;font-size: 16px;&quot; color=&quot;#4f688c&quot;&gt;Statusangabe&lt;/font&gt;" style="text;html=1;align=left;verticalAlign=middle;whiteSpace=wrap;rounded=0;" parent="hZRU2H-SfIQ9f5EC4YqQ-188" vertex="1">
          <mxGeometry x="86.37569550930995" y="229.56370762711856" width="531.0282037239867" height="31.461864406779657" as="geometry" />
        </mxCell>
        <mxCell id="hZRU2H-SfIQ9f5EC4YqQ-205" value="&lt;div&gt;&lt;font style=&quot;font-size: 15px;&quot; color=&quot;#4f688c&quot;&gt;Checkliste&lt;/font&gt;&lt;/div&gt;" style="strokeWidth=1;shadow=0;dashed=0;align=center;html=1;shape=mxgraph.mockup.buttons.button;strokeColor=#6c8ebf;mainText=;buttonStyle=round;fontSize=17;fontStyle=1;fillColor=#dae8fc;whiteSpace=wrap;" parent="hZRU2H-SfIQ9f5EC4YqQ-188" vertex="1">
          <mxGeometry x="56.50602409638554" y="387.7966101694915" width="104.93975903614457" height="37.28813559322033" as="geometry" />
        </mxCell>
        <mxCell id="hZRU2H-SfIQ9f5EC4YqQ-206" value="&lt;font style=&quot;font-size: 15px;&quot; color=&quot;#ffffff&quot;&gt;&lt;span style=&quot;font-weight: normal;&quot;&gt;Termin&lt;/span&gt; &lt;span style=&quot;font-weight: normal;&quot;&gt;ablehnen&lt;/span&gt;&lt;/font&gt;" style="strokeWidth=1;shadow=0;dashed=0;align=center;html=1;shape=mxgraph.mockup.buttons.button;strokeColor=#A680B8;mainText=;buttonStyle=round;fontSize=17;fontStyle=1;fillColor=#CDA2BE;whiteSpace=wrap;" parent="hZRU2H-SfIQ9f5EC4YqQ-188" vertex="1">
          <mxGeometry x="531.1566265060239" y="387.7966101694915" width="106.55421686746988" height="37.28813559322033" as="geometry" />
        </mxCell>
        <mxCell id="hZRU2H-SfIQ9f5EC4YqQ-207" value="" style="html=1;verticalLabelPosition=bottom;align=center;labelBackgroundColor=#ffffff;verticalAlign=top;strokeWidth=2;strokeColor=#7EA6E0;shadow=0;dashed=0;shape=mxgraph.ios7.icons.edit;" parent="hZRU2H-SfIQ9f5EC4YqQ-188" vertex="1">
          <mxGeometry x="26.251084337349404" y="335.59322033898303" width="30.25493975903614" height="29.83050847457627" as="geometry" />
        </mxCell>
        <mxCell id="hZRU2H-SfIQ9f5EC4YqQ-208" value="&lt;div&gt;&lt;br&gt;&lt;/div&gt;&lt;div&gt;&lt;br&gt;&lt;/div&gt;&lt;div align=&quot;left&quot;&gt;&lt;font color=&quot;#4f688c&quot;&gt;&lt;br&gt;&lt;/font&gt;&lt;/div&gt;&lt;div align=&quot;left&quot;&gt;&lt;font color=&quot;#4f688c&quot;&gt;eigene Notizen&lt;/font&gt;&lt;/div&gt;&lt;div align=&quot;left&quot;&gt;&lt;font color=&quot;#4f688c&quot;&gt;&lt;br&gt;&lt;/font&gt;&lt;/div&gt;&lt;div align=&quot;left&quot;&gt;&lt;font color=&quot;#4f688c&quot;&gt;&lt;br&gt;&lt;/font&gt;&lt;/div&gt;&lt;div align=&quot;left&quot;&gt;&lt;font color=&quot;#4f688c&quot;&gt;&lt;br&gt;&lt;/font&gt;&lt;/div&gt;&lt;div align=&quot;left&quot;&gt;&lt;font color=&quot;#4f688c&quot;&gt;&lt;br&gt;&lt;/font&gt;&lt;/div&gt;" style="rounded=1;whiteSpace=wrap;html=1;strokeColor=#A9C4EB;align=left;" parent="hZRU2H-SfIQ9f5EC4YqQ-188" vertex="1">
          <mxGeometry x="86.37349397590361" y="335.59322033898303" width="519.0481927710844" height="37.28813559322033" as="geometry" />
        </mxCell>
        <mxCell id="hZRU2H-SfIQ9f5EC4YqQ-209" value="&lt;font size=&quot;1&quot;&gt;&lt;u style=&quot;font-size: 14px;&quot;&gt;Bearbeiten&lt;/u&gt;&lt;/font&gt;" style="html=1;shadow=0;dashed=0;shape=mxgraph.bootstrap.rrect;rSize=5;strokeColor=none;strokeWidth=1;fillColor=none;fontColor=#0085FC;whiteSpace=wrap;align=center;verticalAlign=middle;spacingLeft=0;fontStyle=0;fontSize=16;spacing=5;" parent="hZRU2H-SfIQ9f5EC4YqQ-188" vertex="1">
          <mxGeometry x="523.0843373493975" y="350.0610169491526" width="88.79518072289156" height="22.82033898305085" as="geometry" />
        </mxCell>
        <mxCell id="hZRU2H-SfIQ9f5EC4YqQ-210" value="" style="endArrow=classic;html=1;rounded=0;entryX=0;entryY=0.25;entryDx=0;entryDy=0;strokeColor=#ABABAB;" parent="1" source="hZRU2H-SfIQ9f5EC4YqQ-136" target="hZRU2H-SfIQ9f5EC4YqQ-61" edge="1">
          <mxGeometry width="50" height="50" relative="1" as="geometry">
            <mxPoint x="-942" y="640" as="sourcePoint" />
            <mxPoint x="-892" y="590" as="targetPoint" />
          </mxGeometry>
        </mxCell>
        <mxCell id="hZRU2H-SfIQ9f5EC4YqQ-217" style="edgeStyle=none;rounded=0;orthogonalLoop=1;jettySize=auto;html=1;" parent="1" source="hZRU2H-SfIQ9f5EC4YqQ-211" target="hZRU2H-SfIQ9f5EC4YqQ-216" edge="1">
          <mxGeometry relative="1" as="geometry" />
        </mxCell>
        <mxCell id="hZRU2H-SfIQ9f5EC4YqQ-211" value="&lt;font style=&quot;font-size: 24px;&quot; color=&quot;#ffffff&quot;&gt;&lt;b&gt;Detailansicht Prüfungstermin&lt;br&gt;&lt;/b&gt;&lt;/font&gt;" style="rounded=0;whiteSpace=wrap;html=1;fillColor=#7EA6E0;strokeColor=#7EA6E0;" parent="1" vertex="1">
          <mxGeometry x="150" y="350" width="500" height="65" as="geometry" />
        </mxCell>
        <mxCell id="hZRU2H-SfIQ9f5EC4YqQ-212" value="&lt;font style=&quot;background-color: rgb(171, 171, 171);&quot; color=&quot;#ffffff&quot;&gt;Orientierung an dem Moodle-Kalender und dessen Funktionalitäten abgewandelt für den Zweck des Buchungstools &lt;/font&gt;" style="rounded=1;whiteSpace=wrap;html=1;fillColor=#ABABAB;fontColor=#333333;strokeColor=#666666;" parent="1" vertex="1">
          <mxGeometry x="-1270" y="20" width="170" height="110" as="geometry" />
        </mxCell>
        <mxCell id="hZRU2H-SfIQ9f5EC4YqQ-213" style="edgeStyle=none;rounded=0;orthogonalLoop=1;jettySize=auto;html=1;entryX=1.012;entryY=0.055;entryDx=0;entryDy=0;entryPerimeter=0;fillColor=#f5f5f5;strokeColor=#ABABAB;" parent="1" source="5YDPGhxfkZ1rQy1-W0EN-1" target="hZRU2H-SfIQ9f5EC4YqQ-212" edge="1">
          <mxGeometry relative="1" as="geometry" />
        </mxCell>
        <mxCell id="hZRU2H-SfIQ9f5EC4YqQ-214" value="&lt;font color=&quot;#ffffff&quot;&gt;Orientiert sich an der &quot;Aktuelle Termine&quot;-Ansicht des Mooclekalenders&lt;br&gt;&lt;/font&gt;" style="rounded=1;whiteSpace=wrap;html=1;fillColor=#ABABAB;fontColor=#333333;strokeColor=#666666;" parent="1" vertex="1">
          <mxGeometry x="-1180" y="910" width="170" height="75" as="geometry" />
        </mxCell>
        <mxCell id="hZRU2H-SfIQ9f5EC4YqQ-215" style="edgeStyle=none;rounded=0;orthogonalLoop=1;jettySize=auto;html=1;entryX=1;entryY=0.19;entryDx=0;entryDy=0;entryPerimeter=0;strokeColor=#ABABAB;" parent="1" source="hZRU2H-SfIQ9f5EC4YqQ-61" target="hZRU2H-SfIQ9f5EC4YqQ-214" edge="1">
          <mxGeometry relative="1" as="geometry" />
        </mxCell>
        <mxCell id="hZRU2H-SfIQ9f5EC4YqQ-216" value="&lt;font color=&quot;#ffffff&quot;&gt;Orientiert sich an der Detailansicht des Moodle-Kalenders&lt;br&gt;&lt;/font&gt;" style="rounded=1;whiteSpace=wrap;html=1;fillColor=#ABABAB;fontColor=#333333;strokeColor=#666666;" parent="1" vertex="1">
          <mxGeometry x="670" y="280" width="157" height="80" as="geometry" />
        </mxCell>
        <mxCell id="hZRU2H-SfIQ9f5EC4YqQ-218" value="&lt;font color=&quot;#ffffff&quot;&gt;Es fehlt noch die Kategorie (Verantwortlicher des Service-Team) bzw. die Person, die die Aufsichts oder Support-Person für den Termin eingeteilt hat, um Rücksprachen zu halten. &lt;br&gt;&lt;/font&gt;" style="rounded=1;whiteSpace=wrap;html=1;fillColor=#ABABAB;fontColor=#333333;strokeColor=#666666;" parent="1" vertex="1">
          <mxGeometry x="140" y="1214" width="210" height="106" as="geometry" />
        </mxCell>
        <mxCell id="hZRU2H-SfIQ9f5EC4YqQ-220" style="edgeStyle=none;rounded=0;orthogonalLoop=1;jettySize=auto;html=1;entryX=0;entryY=1;entryDx=0;entryDy=0;strokeColor=#ABABAB;" parent="1" source="hZRU2H-SfIQ9f5EC4YqQ-152" target="hZRU2H-SfIQ9f5EC4YqQ-218" edge="1">
          <mxGeometry relative="1" as="geometry" />
        </mxCell>
        <mxCell id="hZRU2H-SfIQ9f5EC4YqQ-223" value="" style="edgeStyle=none;rounded=0;orthogonalLoop=1;jettySize=auto;html=1;" parent="1" source="hZRU2H-SfIQ9f5EC4YqQ-222" target="hZRU2H-SfIQ9f5EC4YqQ-122" edge="1">
          <mxGeometry relative="1" as="geometry" />
        </mxCell>
        <mxCell id="hZRU2H-SfIQ9f5EC4YqQ-222" value="&lt;font color=&quot;#ababab&quot;&gt;Die Funktion ist optional und bisher nicht in den Userstorries enthalten (Ich dachteaber, dass es eventuell sinnvoll sei, eigene Notizen anlegen zu können(Was man selbst nicht vergessen will, andere aber nicht lesen können)&lt;br&gt;&lt;/font&gt;" style="text;html=1;align=center;verticalAlign=middle;whiteSpace=wrap;rounded=0;" parent="1" vertex="1">
          <mxGeometry x="625" y="982.5" width="190" height="170" as="geometry" />
        </mxCell>
        <mxCell id="hZRU2H-SfIQ9f5EC4YqQ-226" value="&lt;font size=&quot;1&quot; color=&quot;#4f688c&quot;&gt;&lt;b style=&quot;font-size: 29px;&quot;&gt;Buchungskalender&lt;/b&gt;&lt;/font&gt;" style="text;html=1;align=center;verticalAlign=middle;whiteSpace=wrap;rounded=0;" parent="1" vertex="1">
          <mxGeometry x="-770" y="10" width="170" height="60" as="geometry" />
        </mxCell>
        <mxCell id="hZRU2H-SfIQ9f5EC4YqQ-227" value="&lt;font size=&quot;1&quot; color=&quot;#4f688c&quot;&gt;&lt;b style=&quot;font-size: 29px;&quot;&gt;Buchungskalender&lt;/b&gt;&lt;/font&gt;" style="text;html=1;align=center;verticalAlign=middle;whiteSpace=wrap;rounded=0;" parent="1" vertex="1">
          <mxGeometry x="-780" y="925" width="170" height="60" as="geometry" />
        </mxCell>
        <mxCell id="hZRU2H-SfIQ9f5EC4YqQ-228" value="&lt;font size=&quot;1&quot; color=&quot;#4f688c&quot;&gt;&lt;span style=&quot;font-weight: normal; font-size: 13px;&quot;&gt;Import und Export&lt;/span&gt;&lt;/font&gt;" style="strokeWidth=1;shadow=0;dashed=0;align=center;html=1;shape=mxgraph.mockup.buttons.button;strokeColor=#6c8ebf;mainText=;buttonStyle=round;fontSize=17;fontStyle=1;fillColor=#dae8fc;whiteSpace=wrap;" parent="1" vertex="1">
          <mxGeometry x="-801" y="790" width="110" height="30" as="geometry" />
        </mxCell>
        <mxCell id="hZRU2H-SfIQ9f5EC4YqQ-229" value="&lt;font size=&quot;1&quot; color=&quot;#4f688c&quot;&gt;&lt;span style=&quot;font-weight: normal; font-size: 13px;&quot;&gt;Import und Export&lt;/span&gt;&lt;/font&gt;" style="strokeWidth=1;shadow=0;dashed=0;align=center;html=1;shape=mxgraph.mockup.buttons.button;strokeColor=#6c8ebf;mainText=;buttonStyle=round;fontSize=17;fontStyle=1;fillColor=#dae8fc;whiteSpace=wrap;" parent="1" vertex="1">
          <mxGeometry x="-801" y="2520" width="110" height="30" as="geometry" />
        </mxCell>
        <mxCell id="e1TnNH38wNG9se1s8yBi-10" value="" style="edgeStyle=orthogonalEdgeStyle;rounded=0;orthogonalLoop=1;jettySize=auto;html=1;" edge="1" parent="1" source="dn2ftPwxMdWk7J5uYx6K-3" target="e1TnNH38wNG9se1s8yBi-9">
          <mxGeometry relative="1" as="geometry" />
        </mxCell>
        <mxCell id="dn2ftPwxMdWk7J5uYx6K-3" value="Anmerkung von Philipp und Melanie: &lt;br&gt;Ist der Button &quot;Termin ablehnen&quot; an dieser Stelle wirklich sinnvoll?&lt;br&gt;Sollte die Kommunikation darüber nicht außerhalb des Buchungstools erfolgen?" style="text;whiteSpace=wrap;html=1;fillColor=#d5e8d4;strokeColor=#82b366;" parent="1" vertex="1">
          <mxGeometry x="-60" y="1410" width="220" height="110" as="geometry" />
        </mxCell>
        <mxCell id="e1TnNH38wNG9se1s8yBi-5" value="" style="html=1;verticalLabelPosition=bottom;align=center;labelBackgroundColor=#ffffff;verticalAlign=top;strokeWidth=2;strokeColor=#7EA6E0;shadow=0;dashed=0;shape=mxgraph.ios7.icons.edit;" vertex="1" parent="1">
          <mxGeometry x="183" y="540.5999999999999" width="29.4" height="29.4" as="geometry" />
        </mxCell>
        <mxCell id="e1TnNH38wNG9se1s8yBi-9" value="Statt &quot;Termin ablehnen&quot; könnte hier ein Button &quot;Mitteilung&quot; an den Terminverantwortlichen (Service-Team-Kollege) stehen." style="text;whiteSpace=wrap;html=1;fillColor=#d5e8d4;strokeColor=#82b366;" vertex="1" parent="1">
          <mxGeometry x="240" y="1410" width="220" height="110" as="geometry" />
        </mxCell>
      </root>
    </mxGraphModel>
  </diagram>
</mxfile>
